<?xml version="1.0" encoding="UTF-8" standalone="no"?>
<!DOCTYPE svg PUBLIC "-//W3C//DTD SVG 1.1//EN" "http://www.w3.org/Graphics/SVG/1.1/DTD/svg11.dtd">
<svg width="100%" height="100%" viewBox="0 0 1832 1832" version="1.1" xmlns="http://www.w3.org/2000/svg" xmlns:xlink="http://www.w3.org/1999/xlink" xml:space="preserve" xmlns:serif="http://www.serif.com/" style="fill-rule:evenodd;clip-rule:evenodd;stroke-linejoin:round;stroke-miterlimit:2;">
    <rect id="Artboard1" x="0" y="0" width="1831.04" height="1831.04" style="fill:rgb(4,90,41);"/>
    <g id="Artboard11" serif:id="Artboard1">
        <g transform="matrix(4.16667,0,0,4.16667,-496.953,-371.732)">
            <text x="301.851px" y="180.134px" style="font-family:'ConcourseC3', 'Concourse C3';font-weight:300;font-size:18px;fill:white;">Jo<tspan x="322.664px 328.3px 340.057px 345.184px 359.101px " y="180.134px 180.134px 180.134px 180.134px 180.134px ">in Us</tspan>!</text>
            <text x="255.231px" y="223.974px" style="font-family:'ConcourseC3', 'Concourse C3';font-weight:300;font-size:18px;fill:white;">Bu<tspan x="278.024px 287.981px 297.937px 307.354px 317.49px 334.647px 344.243px 349.371px 361.127px 370.544px 381.04px 386.167px 400.084px 405.72px " y="223.974px 223.974px 223.974px 223.974px 223.974px 223.974px 223.974px 223.974px 223.974px 223.974px 223.974px 223.974px 223.974px 223.974px ">tterﬂy Red Hil</tspan>l</text>
            <text x="223.143px" y="245.894px" style="font-family:'ConcourseC3', 'Concourse C3';font-weight:300;font-size:18px;fill:white;">3p<tspan x="242.696px 256.073px 262.249px 267.376px 277.873px 287.829px 298.866px 303.993px 315.749px 324.626px 329.753px 344.749px 355.066px 365.022px 376.779px 386.195px 395.612px 405.748px 410.875px 421.552px 433.128px 443.805px " y="245.894px 245.894px 245.894px 245.894px 245.894px 245.894px 245.894px 245.894px 245.894px 245.894px 245.894px 245.894px 245.894px 245.894px 245.894px 245.894px 245.894px 245.894px 245.894px 245.894px 245.894px 245.894px ">m, 8th of October 2022</tspan></text>
            <text x="205.077px" y="267.814px" style="font-family:'ConcourseC3', 'Concourse C3';font-weight:300;font-size:18px;fill:white;">13<tspan x="224.45px 234.946px 240.073px 253.27px 263.406px 273.363px 284.399px 295.796px 305.932px 315.349px 320.476px 331.152px 340.569px 350.885px 360.842px 365.969px 377.725px 388.222px 394.398px 399.525px 411.282px 420.698px 431.195px 436.322px 450.238px 455.875px 464.211px " y="267.814px 267.814px 267.814px 267.814px 267.814px 267.814px 267.814px 267.814px 267.814px 267.814px 267.814px 267.814px 267.814px 267.814px 267.814px 267.814px 267.814px 267.814px 267.814px 267.814px 267.814px 267.814px 267.814px 267.814px 267.814px 267.814px 267.814px ">8 Arthurs Seat Rd, Red Hill</tspan></text>
            <text x="234.04px" y="289.734px" style="font-family:'ConcourseC3', 'Concourse C3';font-weight:300;font-size:18px;fill:white;">Bo<tspan x="257.193px 268.95px 280.706px 294.983px 306.379px 316.516px 326.652px 338.049px 349.805px 360.842px 365.969px 378.985px 390.742px 402.138px 413.895px 423.851px 433.988px " y="289.734px 289.734px 289.734px 289.734px 289.734px 289.734px 289.734px 289.734px 289.734px 289.734px 289.734px 289.734px 289.734px 289.734px 289.734px 289.734px 289.734px ">onwurrung Country</tspan></text>
            <text x="286.674px" y="464.774px" style="font-family:'ConcourseC3', 'Concourse C3';font-weight:300;font-size:18px;fill:white;">EN<tspan x="312.527px 323.924px 334.78px 346.537px 351.664px 362.341px 368.697px " y="464.774px 464.774px 464.774px 464.774px 464.774px 464.774px 464.774px ">TER SIT</tspan>E</text>
        </g>
        <g transform="matrix(0.318673,0,0,0.318673,-189.08,113.318)">
            <path d="M4063.56,3898.31C4060.72,3895.39 4058.31,3893.15 4056.18,3890.67C4054.24,3888.41 4052.68,3885.83 4050.83,3883.48C4040.94,3870.93 4030.11,3859.02 4021.33,3845.75C4007.3,3824.56 3992.68,3803.71 3981.49,3780.69C3974.19,3765.67 3965.25,3751.45 3957.27,3736.74C3950.84,3724.9 3944.65,3712.92 3938.56,3700.9C3932.33,3688.59 3924.98,3677.04 3916.29,3666.34C3909.21,3657.63 3902.29,3648.77 3894.84,3640.4C3890.22,3635.2 3884.68,3630.83 3879.64,3626C3874.6,3621.17 3869.75,3616.13 3864.65,3611.37C3856.99,3604.21 3849.2,3597.19 3841.44,3590.14C3829.5,3579.3 3820.3,3566.22 3811.05,3553.18C3790.87,3524.73 3780.07,3511.02 3776.36,3498.98C3773.61,3490.03 3771.34,3478.21 3761.61,3465.28C3760.25,3463.46 3757.04,3459.62 3749.92,3452.63C3740.65,3443.53 3731.33,3434.48 3721.83,3425.64C3718.2,3422.26 3714.15,3419.27 3710.03,3416.51C3695.37,3406.71 3682.47,3395 3671.45,3381.29C3659.26,3366.12 3646.83,3351.09 3635.49,3335.29C3626.93,3323.36 3619.86,3310.36 3612.26,3297.76C3608.01,3290.71 3603.91,3283.57 3599.96,3276.35C3591.58,3261.03 3583.29,3245.67 3575.12,3230.24C3573.5,3227.18 3572.5,3223.77 3571.44,3220.44C3566.55,3205.01 3561.13,3189.7 3557.1,3174.03C3554.45,3163.72 3553.02,3152.92 3552.47,3142.26C3551.53,3123.85 3551.83,3105.39 3551.38,3086.95C3550.91,3067.51 3550.07,3048.08 3544.73,3029.22C3543.17,3023.73 3540.42,3018.57 3539.01,3013.06C3536.25,3002.21 3534.07,2991.2 3531.61,2980.27C3530.89,2977.08 3530.26,2974.89 3529.41,2971.63C3522.05,2943.35 3510.28,2908.27 3501.26,2881.36C3500.85,2880.15 3499.67,2876.76 3498.31,2872.12C3498.31,2872.12 3497.64,2869.9 3497.04,2867.79C3493.53,2855.5 3490.96,2824.38 3484.18,2823.5C3483.22,2823.38 3481.55,2823.78 3480.25,2824.66C3478.99,2825.51 3478.09,2826.81 3477.46,2828.5C3474.17,2837.38 3470.9,2846.26 3467.67,2855.16C3461.07,2873.37 3458.18,2892.33 3456.04,2911.48C3453.99,2929.83 3451.36,2948.12 3449.25,2966.46C3447.06,2985.52 3443.9,3004.3 3442.47,3030.48C3441.64,3045.71 3442.03,3049.72 3442.51,3052.97C3444.75,3067.86 3451.27,3080.58 3457.18,3096.3C3457.48,3097.12 3458.51,3099.83 3459.97,3103.49C3460.51,3104.84 3461.13,3106.37 3461.86,3108.1C3464.85,3115.22 3468.34,3122.15 3470.9,3129.42C3476.15,3144.35 3484.77,3157.57 3491.67,3171.65C3492.64,3173.62 3494.55,3175.98 3497.94,3180.92C3512.55,3202.24 3517.46,3206.42 3523.76,3217.03C3528.08,3224.31 3530.44,3230.56 3535.15,3243.05C3547.29,3275.23 3552.87,3305.31 3551.84,3305.58C3551.32,3305.72 3549.5,3298.14 3544.58,3284.83C3539.34,3270.68 3532.84,3253.25 3522.03,3231.92C3522.03,3231.92 3507.71,3205.21 3497.01,3190.62C3493.87,3186.34 3490.57,3182.53 3490.57,3182.53C3490.02,3181.87 3489.4,3181.16 3488.58,3180.28C3474.9,3165.51 3471.32,3151.16 3465.38,3137.04C3462,3129.01 3450.06,3100.64 3444.67,3101.93C3442.75,3102.39 3441.96,3106.56 3441.57,3150.74C3441.41,3169.08 3441.56,3168.48 3441.35,3175.92C3440.89,3192.08 3440.01,3205.35 3439.09,3219.35C3436.79,3254.1 3435.67,3257.98 3434.37,3283.57C3433.58,3299.02 3433.65,3314.51 3433.59,3329.98C3433.55,3338.85 3434.03,3347.72 3433.75,3356.69C3430.75,3348.06 3428.39,3339.3 3428.15,3330.08C3427.81,3316.88 3427.39,3303.68 3427.3,3290.48C3427.25,3282.01 3427.82,3273.54 3427.93,3265.07C3428.37,3229.5 3427.05,3224.36 3427.51,3218.85C3427.74,3216.14 3428.25,3214.16 3428.39,3213.5C3431.1,3200.83 3434.71,3162.95 3432.07,3162.51C3431.82,3162.47 3431,3162.59 3430.26,3165.36C3428.52,3171.81 3427.66,3178.58 3425.25,3184.76C3420.64,3196.58 3407.91,3219.01 3399.35,3230.13C3367.37,3271.69 3356.26,3295.97 3354.21,3294.78C3352.3,3293.68 3360.36,3272.12 3375.81,3252.67C3382.51,3244.22 3384.25,3244.18 3391.17,3236.07C3407.78,3216.62 3418.82,3185.99 3418.82,3185.99C3418.82,3185.99 3435.37,3139.37 3431.36,3087.08C3431.22,3085.27 3430.91,3081.71 3430.62,3076.45C3429.86,3062.39 3430.26,3050.44 3430.88,3030.83C3431.36,3015.63 3432.06,3000.39 3433.59,2985.26C3435.3,2968.4 3437.89,2951.61 3440.42,2934.84C3442.12,2923.51 3444.23,2912.23 3446.45,2900.98C3447.6,2895.13 3449.33,2889.39 3450.89,2883.63C3455.46,2866.81 3459.99,2849.98 3464.73,2833.21C3465.73,2829.66 3467.24,2826.15 3469.09,2822.96C3471.35,2819.07 3471.67,2815.57 3468.68,2811.55C3459.87,2815.14 3455.08,2822.76 3449.95,2829.95C3444.63,2837.4 3440.07,2845.29 3433.75,2852.12C3427.7,2858.66 3423.37,2866.76 3417.6,2873.6C3408.97,2883.84 3402.73,2895.95 3392.43,2904.93C3388.37,2908.48 3385.2,2913.19 3382.14,2917.73C3369.67,2936.21 3353.91,2951.97 3339.65,2968.96C3330.36,2980.04 3320.42,2990.58 3310.99,3001.55C3307.59,3005.51 3304.86,3010.04 3301.77,3014.27C3290.73,3029.4 3281.23,3047.78 3268.5,3075.99C3252.68,3111.06 3242.96,3138.71 3240,3147.28C3231.98,3170.46 3226.56,3190.73 3222.15,3205.98C3219.31,3215.79 3217.46,3225.89 3214.9,3235.79C3207.66,3263.77 3200.46,3291.76 3192.88,3319.65C3188.57,3335.53 3183.48,3351.19 3178.83,3366.98C3169.57,3398.43 3162,3430.18 3161.75,3463.24C3161.62,3480.47 3160.77,3497.72 3161.54,3514.91C3162.18,3529.08 3164.51,3543.19 3166.48,3557.28C3168.99,3575.32 3171.78,3593.32 3174.69,3611.31C3175.85,3618.44 3177.61,3625.48 3179.18,3632.54C3184.72,3657.57 3188.59,3699.47 3186.21,3743.33C3182.88,3804.68 3168.97,3842.73 3168.16,3890.15C3167.83,3909.1 3168.24,3920.11 3168.24,3920.11C3168.81,3935.56 3169.92,3950.98 3170.61,3966.43C3170.96,3974.12 3170.9,3981.83 3171.02,3989.54C3170.85,3989.66 3170.6,3989.8 3170.28,3989.87C3163.33,3991.38 3146.63,3952.39 3138.03,3914.74C3135.92,3905.47 3134.08,3892.08 3130.27,3865.32C3127.67,3847.05 3125.14,3828.78 3122.91,3810.46C3120.3,3788.92 3110.9,3769.34 3105.49,3748.62C3102.56,3737.38 3096.82,3727.43 3091.97,3717.07C3083.81,3699.67 3075.5,3682.34 3067.46,3664.9C3061.5,3651.99 3055.21,3639.18 3050.22,3625.89C3042.11,3604.32 3037.33,3581.87 3035.4,3558.85C3032.17,3520.3 3036.2,3491.87 3041.5,3459.75C3042.76,3452.18 3044.45,3443.28 3046.99,3433.17C3051.31,3415.95 3056.06,3403.09 3059.17,3394.99C3078.29,3345.01 3100.45,3303.76 3112.6,3269.85C3113,3268.75 3113.65,3266.74 3114.77,3264.04C3120.74,3249.68 3128.98,3236.58 3136.97,3223.33C3143.79,3212 3150.26,3200.46 3157.18,3189.2C3162.78,3180.08 3169.33,3171.51 3174.54,3162.19C3184.01,3145.24 3192.71,3127.86 3201.95,3110.78C3204.18,3106.66 3207.38,3103.09 3209.97,3099.16C3213.25,3094.19 3216.12,3088.94 3219.59,3084.12C3234.62,3063.29 3250.46,3043.14 3267.77,3024.1C3286.94,3003.03 3308.1,2984.02 3328.33,2964.05C3340.37,2952.17 3351.52,2939.38 3363.12,2927.05C3373.02,2916.52 3382.94,2906.01 3392.95,2895.59C3401.94,2886.22 3410.46,2876.52 3417.51,2865.53C3420.84,2860.35 3425.29,2855.89 3428.76,2850.8C3435.78,2840.52 3442.65,2830.13 3449.26,2819.59C3455.62,2809.47 3461.79,2799.21 3467.67,2788.8C3473.68,2778.18 3478.95,2767.26 3482.15,2755.31C3484.92,2744.97 3489.07,2735.01 3492.36,2724.8C3494.11,2719.35 3495.44,2713.76 3496.77,2708.18C3500.58,2692.19 3503.82,2676.05 3508.23,2660.23C3510.96,2650.44 3515.37,2641.12 3519.18,2631.65C3519.8,2630.11 3521.09,2628.75 3522.31,2627.54C3530.29,2619.64 3538.42,2611.88 3546.32,2603.89C3549.96,2600.21 3553.19,2596.12 3557.18,2592.5C3557.2,2596.75 3555.29,2600.31 3553.45,2603.84C3549.53,2611.36 3544.83,2618.56 3541.68,2626.38C3536.65,2638.85 3532.49,2651.68 3528.19,2664.44C3523.73,2677.68 3519.18,2690.91 3515.34,2704.33C3511.44,2718 3508.68,2731.99 3504.85,2745.68C3499.26,2765.62 3498.17,2786.04 3498.18,2806.51C3498.18,2814.6 3498.68,2825.07 3500.83,2841.51C3500.83,2841.51 3512.03,2926.89 3555.19,3014.81C3557.19,3018.89 3559.41,3023.26 3559.41,3023.26C3563.22,3030.68 3566.3,3036.22 3569.71,3042.62C3572.17,3047.22 3575.74,3051.29 3577.82,3056.03C3585.51,3073.58 3598.14,3088.02 3607.65,3104.41C3614.53,3116.27 3620.68,3128.57 3627.7,3140.35C3637.52,3156.84 3646.35,3174.04 3659.19,3188.52C3683.86,3216.33 3708.81,3243.87 3736.29,3269.01C3746.24,3278.1 3755.85,3287.58 3765.43,3297.05C3775.54,3307.04 3785.8,3316.91 3795.36,3327.4C3820.35,3354.83 3839.53,3385.67 3851.79,3421C3861.6,3449.27 3873.11,3476.96 3884.17,3504.78C3887.29,3512.61 3891.48,3520.03 3895.23,3527.61C3897.45,3532.08 3899.82,3536.47 3902.04,3540.94C3907.49,3551.89 3913,3562.8 3918.29,3573.83C3924.75,3587.33 3930.85,3601 3937.41,3614.45C3943.31,3626.53 3949.54,3638.46 3955.78,3650.37C3964.23,3666.49 3973.51,3682.22 3981.17,3698.71C3987.65,3712.67 3992.3,3727.5 3997.85,3741.91C4001.25,3750.75 4004.8,3759.54 4008.28,3768.35C4013.67,3782.02 4018.56,3795.91 4024.59,3809.29C4030.83,3823.15 4038.1,3836.54 4045.07,3850.06C4050.54,3860.68 4056.25,3871.17 4061.83,3881.74C4063.96,3885.78 4064.59,3891.11 4063.56,3898.31ZM3457.85,3193.34C3460.17,3200.26 3463.07,3207.1 3463.07,3207.1C3465.39,3212.87 3468.2,3218.47 3471.19,3223.93C3478.08,3236.47 3483.71,3249.44 3486.55,3263.56C3487.72,3269.43 3490.07,3275.1 3490.86,3280.99C3493,3296.79 3494.71,3312.65 3496.35,3328.51C3498.57,3349.97 3497.07,3371.42 3495.43,3392.84C3494.98,3398.68 3493.66,3404.46 3492.75,3410.23C3491.75,3410.09 3491.4,3410.15 3491.29,3410.02C3484.29,3400.71 3474.07,3395.87 3464.09,3390.81C3460.61,3389.04 3456.7,3387.67 3452.84,3387.17C3448.83,3386.65 3446.97,3384.69 3446.46,3381.14C3445.58,3374.98 3444.99,3368.79 3444.19,3362.62C3440.62,3335.24 3441.28,3307.84 3443.68,3280.42C3443.79,3279.18 3443.89,3277.92 3443.8,3276.68C3442.66,3260.68 3445.44,3244.93 3446.79,3229.08C3449.7,3194.94 3449.73,3200.21 3450.04,3192.58C3451.12,3166.34 3448.61,3145.16 3448.99,3145.13C3449.43,3145.1 3450.91,3172.66 3457.85,3193.34ZM3503.41,3664.38C3506.25,3684.87 3506.41,3698.75 3506.02,3708.01C3506.02,3708.01 3505.78,3713.49 3505.27,3718.89C3502.2,3751.16 3486.73,3781.7 3476.42,3817.16C3474.34,3824.32 3471.31,3839.23 3465.54,3869.13C3461.1,3892.11 3457.25,3915.21 3452.9,3938.21C3448.58,3961.01 3443.63,3983.7 3439.54,4006.54C3434.72,4033.52 3424.81,4058.87 3415.4,4084.39C3412.9,4091.17 3409.91,4097.77 3406.97,4104.37C3401.73,4116.17 3400.62,4128.95 3398.1,4141.39C3396.86,4147.48 3396.18,4153.68 3394.68,4159.83C3392.69,4155.16 3393.15,4150.18 3393.67,4145.51C3395.38,4130.22 3393.53,4115.09 3392.65,4099.89C3392.34,4094.46 3392.87,4088.97 3393,4083.5C3393.24,4072.53 3393.73,4061.55 3393.63,4050.58C3393.53,4040.26 3393.11,4033.79 3392.35,4021.5C3389.93,3982.66 3390.65,3983.47 3389.39,3967.46C3386.1,3925.62 3381.16,3920.25 3377.49,3873.53C3376.84,3865.29 3376.02,3854.57 3375.69,3840.12C3375.24,3820.3 3376.79,3797.1 3379.2,3768.34C3380.66,3751.04 3384.53,3733.94 3390.83,3717.68C3396.57,3702.87 3399.06,3687.45 3401.93,3671.98C3406.25,3648.76 3406.09,3625.36 3406.55,3601.93C3406.78,3589.97 3407.31,3578.02 3407.81,3566.06C3407.89,3563.92 3408.45,3561.79 3408.79,3559.66C3409.38,3559.57 3409.96,3559.49 3410.54,3559.41C3413.57,3566.7 3416.66,3573.96 3419.6,3581.27C3423.64,3591.34 3427.51,3592.49 3438.08,3591.08C3450.61,3589.4 3463.38,3589.38 3476.06,3589.11C3483.59,3588.94 3484.99,3588.34 3486.33,3580.63C3486.97,3577.01 3488.54,3574.19 3491.94,3571.33C3492.55,3574.08 3493.33,3576.13 3493.43,3578.22C3494.83,3607.17 3499.43,3635.72 3503.41,3664.38ZM3472.32,3404.26C3484.9,3414.18 3490.39,3430.55 3493.43,3446.29C3501.66,3488.74 3496.55,3533.68 3479,3573.21C3478.35,3574.67 3477.65,3576.17 3476.49,3577.27C3476.27,3577.48 3476.03,3577.67 3475.78,3577.85C3473.81,3579.26 3471.18,3579.57 3468.73,3579.8C3458.69,3580.75 3448.65,3581.7 3438.61,3582.66C3435.89,3582.91 3432.93,3583.11 3430.66,3581.59C3428.53,3580.16 3427.56,3577.57 3426.63,3575.17C3417.99,3552.83 3402.31,3533.14 3397.6,3509.65C3391.23,3477.82 3423.16,3365.5 3472.32,3404.26ZM3422.13,3254.14C3422.21,3263.87 3421.83,3281.97 3421.53,3305.71C3421.49,3308.71 3421.35,3311.71 3421.12,3314.69C3420.03,3328.75 3421.35,3342.64 3424.46,3356.32C3426.39,3364.79 3429.06,3373.11 3431.6,3381.43C3433.14,3386.44 3432.28,3390.23 3428.26,3394.02C3422.7,3399.26 3417.86,3405.27 3411.91,3411.84C3410.48,3403.3 3409.12,3395.74 3407.96,3388.16C3406.13,3376.11 3404.35,3363.4 3403.56,3356.37C3399.77,3323.04 3403.13,3292.96 3405.43,3272.33C3407.37,3259.67 3410.18,3245.65 3414.28,3230.63C3418.05,3216.8 3422.32,3204.28 3426.67,3193.13C3422.74,3220.18 3422.01,3240.38 3422.13,3254.14ZM3389.51,4105.81C3389.02,4124.01 3388.2,4142.21 3387.17,4160.38C3386.81,4166.82 3385.42,4173.21 3384.43,4179.64C3385.01,4170.64 3384.13,4161.86 3381.96,4153.05C3379.77,4144.18 3378.96,4134.98 3377.16,4126C3376.24,4121.4 3374.49,4116.97 3373.09,4112.47C3372.28,4109.86 3371.26,4107.3 3370.61,4104.64C3367.78,4093.09 3365.24,4081.46 3362.21,4069.95C3360.25,4062.5 3357.73,4055.19 3355.29,4047.87C3350.86,4034.65 3346.44,4021.43 3341.74,4008.31C3339.18,4001.16 3335.6,3994.35 3333.34,3987.11C3331.05,3979.77 3329.72,3972.12 3328.16,3964.56C3326.75,3957.75 3325.69,3950.87 3324.31,3944.05C3322.48,3935.09 3320.5,3926.16 3318.56,3917.22C3317.21,3911 3315.54,3904.84 3314.47,3898.57C3312.54,3887.32 3306.16,3878.25 3299.87,3869.37C3289.62,3854.89 3282.46,3839.05 3277.46,3822.24C3275.21,3814.64 3274.74,3806.54 3273.03,3798.76C3270.49,3787.13 3267.53,3775.61 3266.36,3763.69C3265.94,3759.5 3265.83,3761.72 3262.6,3748.62C3258.19,3730.75 3256.91,3724.8 3257.32,3716.54C3257.41,3714.55 3256.56,3710.29 3258.72,3705.93C3262.56,3698.13 3265.63,3689.93 3268.91,3681.86C3273.63,3670.26 3275.67,3658.03 3277.61,3645.74C3278.54,3639.87 3280.92,3634.21 3281.72,3628.32C3283,3618.96 3283.54,3609.49 3284.33,3600.05C3284.73,3595.33 3284.94,3590.6 3285.32,3585.88C3287.1,3563.2 3283.68,3541.13 3278.09,3519.23C3275.88,3510.59 3274.5,3501.74 3272.47,3491.58C3285.5,3493.89 3289.47,3484.93 3294.4,3477.62C3300.66,3468.31 3306.13,3458.46 3312.74,3449.42C3318.15,3442.01 3324.54,3435.27 3330.84,3428.55C3338.85,3420.01 3348.07,3412.47 3355.22,3403.29C3359.27,3398.09 3370.49,3383.14 3372.93,3361.24C3375.71,3336.22 3365.46,3316.03 3362.42,3313.73C3362.14,3313.51 3360.63,3312.47 3359.99,3310.57C3359.58,3309.33 3359.61,3307.95 3360.08,3306.44C3360.89,3303.83 3361.53,3301.14 3362.64,3298.66C3366.02,3291.17 3367.8,3284.88 3375.31,3271.67C3381.91,3260.06 3395.5,3239.53 3415.15,3214.73C3410.99,3226.03 3408.11,3235.82 3406.13,3243.32C3402.35,3257.67 3398.43,3280.23 3395.91,3309.73C3395.89,3309.98 3395.91,3310.24 3395.87,3310.48C3392.5,3331.61 3395.81,3352.14 3400.67,3372.71C3403.88,3386.26 3405.63,3400.16 3407.88,3413.92C3408.8,3419.52 3407.57,3424.74 3404.86,3429.8C3401.8,3435.52 3399.33,3441.54 3396.5,3447.38C3388.58,3463.74 3386.96,3481.39 3386.66,3499.1C3386.55,3505.38 3388.81,3511.85 3390.75,3517.99C3393.59,3527 3397.27,3535.74 3400.27,3544.7C3401.6,3548.65 3402.93,3552.87 3402.92,3556.96C3402.83,3591.91 3402.29,3626.86 3398.86,3661.66C3397.78,3672.52 3395.25,3683.3 3392.62,3693.92C3387.05,3716.43 3380.96,3738.81 3375.14,3761.25C3374.7,3762.93 3374.55,3764.71 3374.46,3766.44C3373.19,3789.88 3371.51,3813.31 3370.9,3836.77C3370.62,3847.64 3372.2,3858.6 3373.38,3869.48C3375.39,3888.06 3377.76,3906.61 3379.95,3925.18C3381.55,3938.8 3383.35,3952.4 3384.59,3966.05C3385.95,3980.95 3387.1,3995.89 3387.73,4010.83C3388.58,4030.77 3388.92,4050.73 3389.33,4070.68C3389.57,4082.39 3389.83,4094.11 3389.51,4105.81ZM3423.65,3003.33C3422.6,3017.25 3422.34,3031.24 3422.03,3045.21C3421.82,3054.67 3421.8,3064.17 3422.29,3073.62C3422.95,3086.47 3417.99,3098.01 3414.58,3109.89C3410.4,3124.45 3402.22,3136.99 3394.07,3149.58C3383.96,3165.2 3370.73,3178.15 3358.86,3192.26C3349.6,3203.26 3338.81,3213.29 3333.29,3227.01C3326.49,3243.9 3319.27,3260.66 3315.72,3278.67C3315.39,3280.38 3314.93,3282.08 3314.46,3283.76C3313.59,3286.87 3312.05,3288.79 3308.33,3289.19C3303.39,3289.72 3298.53,3291.07 3293.68,3292.28C3291.4,3292.84 3289.24,3293.89 3286.78,3294.81C3286.79,3293.6 3286.68,3292.12 3286.85,3290.68C3288.99,3272.64 3290.67,3254.53 3293.46,3236.59C3296.2,3219.04 3301.2,3202.26 3310.96,3186.86C3315.64,3179.48 3317.65,3170.28 3320.17,3161.69C3324.48,3147.05 3326.33,3131.92 3327.99,3116.78C3330.85,3090.72 3333.59,3064.65 3337,3038.67C3338.22,3029.34 3340.79,3020.11 3343.58,3011.09C3346.45,3001.83 3350.1,2992.78 3353.87,2983.83C3356.37,2977.88 3359.62,2972.23 3362.63,2966.5C3372.19,2948.36 3382.51,2930.86 3396.84,2915.8C3405.19,2907.03 3412.42,2897.16 3419.18,2886.87C3427.5,2874.23 3438.03,2863.04 3447.64,2851.24C3447.87,2850.96 3448.54,2851.02 3449.48,2850.82C3449.22,2852.4 3449.05,2853.82 3448.74,2855.2C3443.32,2879.81 3437.52,2904.33 3432.6,2929.04C3430.26,2940.74 3429.59,2952.78 3428.17,2964.67C3426.62,2977.55 3424.63,2990.4 3423.65,3003.33ZM3359.9,3376.1C3350.17,3399.66 3327.3,3414.71 3311.29,3434.54C3301.45,3446.72 3294.19,3460.77 3284.84,3473.33C3282.89,3475.96 3280.72,3478.62 3277.71,3479.92C3276.96,3480.24 3276.2,3480.47 3275.42,3480.62C3271.79,3481.31 3267.87,3480.29 3264.23,3479.26C3252.01,3475.8 3237.97,3470.64 3234.3,3458.48C3232.95,3453.99 3233.3,3449.19 3233.79,3444.53C3237.75,3406.57 3274.33,3266.84 3335.7,3300.52C3338.97,3302.32 3341.95,3304.6 3344.69,3307.14C3363.1,3324.13 3369.46,3352.94 3359.9,3376.1ZM3345.79,3295.51C3339.66,3292.78 3333.71,3290.39 3328,3287.51C3324.22,3285.6 3324.31,3281.91 3325.25,3278.32C3326.38,3273.98 3327.58,3269.65 3328.85,3265.35C3331.11,3257.71 3333.4,3250.07 3335.75,3242.46C3338.28,3234.25 3342.46,3227.05 3348.09,3220.5C3361.74,3204.62 3374.72,3188.14 3388.73,3172.58C3400.9,3159.06 3410.33,3143.97 3418.27,3127.78C3419.74,3124.78 3420.89,3121.63 3422.19,3118.55C3422.73,3118.67 3423.27,3118.79 3423.8,3118.91C3423.58,3122.21 3423.3,3125.5 3423.14,3128.79C3421.99,3152.87 3414.18,3175.05 3404.58,3196.89C3397.23,3213.63 3385.51,3227.24 3374.95,3241.73C3367.46,3252.02 3360.35,3262.47 3355.65,3274.46C3352.95,3281.37 3349.37,3287.94 3345.79,3295.51ZM3248.89,3700.49C3236.94,3719.77 3233.16,3738.3 3226.49,3772.46C3223.28,3788.91 3224.48,3799.13 3217.11,3820.74C3215.43,3825.68 3214.62,3830.91 3213.37,3835.99C3209.41,3852.11 3201.95,3866.86 3195.2,3881.87C3188.82,3896.05 3185.62,3911.17 3181.87,3926.12C3180.29,3932.4 3179.11,3938.78 3177.84,3945.13C3177.02,3949.25 3176.37,3953.4 3175.12,3957.57C3174.79,3955.01 3174.32,3951.12 3173.86,3946.39C3171.28,3919.89 3171.07,3887.96 3182.97,3809.29C3188.22,3774.63 3191.26,3763.75 3191.87,3739.59C3192.22,3725.4 3191.36,3711.18 3191.62,3696.98C3192.01,3675.91 3188.27,3655.31 3184.89,3634.69C3183.05,3623.42 3179.39,3612.46 3177.03,3601.25C3175.13,3592.23 3173.95,3583.05 3172.47,3573.93C3172,3571 3171.6,3568.05 3171.12,3565.12C3170.26,3559.96 3169.01,3554.84 3168.53,3549.64C3167.28,3535.98 3166.19,3522.3 3165.32,3508.61C3162.08,3457.79 3171.04,3416.45 3171.04,3416.45C3179.74,3364.33 3190.99,3357.26 3204.98,3290.53C3206.54,3283.08 3209.09,3269.43 3214.08,3250.42C3218.76,3232.6 3223.86,3214.88 3229.2,3197.25C3233.24,3183.92 3237.97,3170.8 3242.31,3157.57C3243.4,3154.26 3244.09,3150.84 3245.13,3147.52C3250.88,3129.11 3259.35,3111.88 3268.11,3094.78C3274.24,3082.79 3280.52,3070.87 3286.71,3058.9C3291.28,3050.05 3294.95,3040.6 3300.53,3032.44C3310.79,3017.45 3322.15,3003.21 3333.07,2988.67C3337.38,2982.95 3341.76,2977.28 3346.11,2971.59C3346.27,2971.87 3346.44,2972.15 3346.6,2972.43C3345.45,2976.73 3344.47,2981.09 3343.09,2985.32C3341.01,2991.72 3339.05,2998.21 3336.32,3004.33C3330.24,3018 3328.04,3032.39 3326.81,3047.13C3325.08,3067.75 3323.24,3088.38 3318.79,3108.65C3318.47,3110.1 3318.16,3111.63 3318.28,3113.08C3319.16,3123.71 3316.34,3133.86 3314.62,3144.18C3312.82,3155.02 3310.33,3165.6 3306,3175.71C3305.32,3177.3 3304.85,3179.04 3303.89,3180.44C3296.04,3191.88 3290.8,3204.41 3288.19,3218.01C3287.85,3219.74 3287.54,3221.48 3287.24,3223.22C3287.24,3223.22 3285.89,3230.84 3284.81,3237.93C3281.98,3256.62 3283.61,3282.38 3274.33,3309.93C3273.66,3311.93 3273.6,3315.09 3271.27,3318.11C3263.93,3327.64 3257.86,3337.83 3253.15,3348.9C3250.3,3355.57 3247.46,3359.73 3243.94,3367.66C3232.75,3392.86 3228.79,3413.27 3225.89,3428.17C3222.34,3446.4 3226.18,3437.92 3223.54,3454.91C3222.25,3463.22 3226.14,3468.3 3232.37,3472.26C3239.94,3477.08 3247.6,3481.84 3255.54,3486.02C3260.09,3488.43 3261.71,3491.96 3262.79,3496.55C3265.51,3508.18 3268.66,3519.7 3271.46,3531.31C3272.85,3537.1 3274.07,3542.96 3274.95,3548.85C3278.61,3573.51 3275.55,3598.12 3273.83,3622.7C3273.29,3630.33 3271.44,3637.97 3269.36,3645.38C3265.4,3659.45 3264.2,3674.22 3256.74,3687.44C3253.46,3693.27 3251.75,3695.88 3248.89,3700.49ZM3571.59,3019.4C3584.87,3030.59 3599.76,3038.96 3615.82,3045.52C3628.27,3050.6 3640.91,3055.46 3652.69,3061.87C3674.13,3073.52 3696.94,3082.74 3716.85,3097.14C3719.82,3099.29 3722.27,3101.75 3725.64,3105.21C3743.24,3123.28 3742.61,3135.38 3756.54,3155.81C3762.18,3164.09 3768.86,3170.68 3782,3184.08C3791.25,3193.5 3801.3,3202.13 3810.85,3211.26C3819.49,3219.52 3827.85,3228.07 3836.51,3236.31C3841.35,3240.92 3846.53,3245.18 3851.56,3249.59C3852.3,3250.24 3853.26,3250.75 3853.76,3251.55C3860.79,3262.75 3871.84,3270.09 3880.89,3279.32C3887.04,3285.59 3892.42,3292.37 3898.03,3299.02C3902.36,3304.18 3906.81,3309.29 3910.59,3314.84C3914.64,3320.79 3918.08,3327.18 3921.58,3333.48C3927.75,3344.57 3933.71,3355.79 3939.89,3366.87C3942.32,3371.23 3945.5,3375.19 3947.65,3379.66C3953.24,3391.31 3959.04,3402.91 3963.66,3414.95C3969.35,3429.81 3974.04,3445.07 3978.97,3460.22C3983.29,3473.49 3987.56,3486.79 3991.44,3500.2C3993.59,3507.6 3995.1,3515.2 3996.53,3522.78C3998.19,3531.59 3995.8,3540.12 3993.94,3548.64C3991.12,3561.61 3990.7,3574.51 3992.8,3587.77C3995.83,3606.81 4000.35,3625.34 4006.36,3643.66C4011,3657.84 4013.89,3672.6 4017.81,3687.03C4020.86,3698.25 4022.51,3702.24 4026.31,3715.71C4031.11,3732.68 4033.51,3741.17 4034.82,3748.21C4037.64,3763.39 4037.51,3767.7 4040.53,3787.29C4041.32,3792.45 4042.7,3797.53 4043.92,3802.62C4048.08,3819.83 4052.35,3837.01 4056.42,3854.23C4057.55,3858.99 4058.15,3863.87 4058.29,3869C4052.62,3856.33 4047.09,3843.59 4041.21,3831.02C4036.81,3821.61 4033.06,3815.42 4031.47,3812.51C4009.31,3771.71 4001.63,3728.44 3980.47,3684.66C3976.64,3676.75 3972.63,3669.14 3972.63,3669.14C3963.47,3651.77 3957.16,3642.35 3951.87,3633.34C3940.96,3614.74 3944.75,3615.54 3930.48,3586.96C3922.61,3571.22 3921.99,3571.99 3903.83,3537.62C3899.05,3528.58 3894.33,3519.48 3890.34,3510.09C3886.15,3500.24 3882.85,3490.01 3879.19,3479.94C3876.13,3471.51 3872.45,3463.23 3870.23,3454.58C3866.29,3439.22 3859.82,3424.82 3852.95,3410.79C3845,3394.56 3837.57,3378.07 3828.49,3362.29C3820.53,3348.44 3810.4,3336.69 3800.28,3324.88C3789.59,3312.43 3777.87,3300.75 3765.7,3289.72C3751.29,3276.65 3738.61,3261.88 3724.44,3248.72C3704.45,3230.16 3687.15,3209.35 3669,3189.18C3654.66,3173.26 3643.58,3155.35 3633.1,3136.96C3623.72,3120.51 3614.97,3103.69 3605.91,3087.06C3604.72,3084.88 3603.33,3082.81 3601.97,3080.73C3592.18,3065.68 3582.13,3050.8 3572.68,3035.55C3567.65,3027.43 3563.65,3018.67 3559.86,3009.61C3563.77,3012.87 3567.69,3016.12 3571.59,3019.4ZM3595.6,3342.92C3609.21,3348.81 3619.1,3360.96 3626.79,3373.64C3643.65,3401.44 3652.38,3433.28 3660.71,3464.71C3661.9,3469.19 3663.09,3473.89 3662.05,3478.41C3661.05,3482.8 3658.08,3486.44 3655.19,3489.9C3651,3494.94 3646.8,3499.98 3642.61,3505.02C3641.25,3506.65 3639.76,3508.37 3637.7,3508.89C3635.07,3509.57 3632.42,3508.09 3630.1,3506.68C3604.53,3491.04 3577.94,3474.4 3562.71,3448.58C3551.58,3429.72 3541.81,3377.97 3554.58,3352.66C3561.2,3339.53 3573.89,3333.52 3595.6,3342.92ZM4074.95,3889.27C4070.49,3870.86 4065.24,3852.63 4060.71,3834.23C4056.6,3817.52 4052.63,3800.75 4049.33,3783.86C4045.56,3764.53 4042.74,3745.02 4039.21,3725.65C4038.23,3720.28 4036.37,3715.05 4034.58,3709.87C4031.91,3702.1 4028.71,3694.52 4026.17,3686.71C4024.01,3680.08 4022.39,3673.28 4020.69,3666.51C4018.33,3657.09 4016.26,3647.59 4013.83,3638.18C4010.4,3624.92 4005.28,3612.09 4003.94,3598.3C4003.54,3594.1 4002.81,3589.9 4001.86,3585.78C3999.36,3574.88 3998.87,3564.09 4002.55,3553.32C4003.84,3549.54 4004.67,3545.62 4005.78,3541.78C4008.05,3533.91 4008.22,3526.27 4005.6,3518.25C4002.11,3507.59 3999.7,3496.58 3996.67,3485.77C3994.46,3477.85 3992.28,3469.9 3989.59,3462.14C3985.83,3451.3 3981.57,3440.64 3977.6,3429.88C3973.37,3418.42 3970.16,3406.49 3964.85,3395.57C3955.05,3375.42 3945.33,3355.23 3933.87,3335.86C3923.79,3318.85 3912.95,3302.47 3900.21,3287.47C3889.25,3274.57 3877.12,3262.65 3865.45,3250.35C3862.7,3247.46 3859.73,3244.78 3856.84,3242.01C3844.76,3230.46 3832.71,3218.87 3820.58,3207.37C3812.44,3199.66 3803.99,3192.27 3796.01,3184.39C3787.89,3176.38 3777.86,3166.38 3768.56,3154.86C3745.38,3126.14 3752.14,3119.13 3732.79,3099.69C3718.96,3085.79 3703.3,3076.38 3697.36,3073.74C3688.71,3069.9 3680.15,3065.86 3671.64,3061.71C3657.98,3055.04 3644.46,3048.08 3630.75,3041.52C3624.69,3038.62 3618.24,3036.56 3612.1,3033.82C3608.65,3032.28 3590.31,3023.34 3573.81,3007.8C3554.07,2989.21 3545.66,2969.2 3534.8,2943.36C3534.8,2943.36 3527.77,2922.18 3520.56,2900C3520.02,2898.35 3519.72,2896.61 3519.37,2894.9C3518.26,2889.54 3517.25,2884.15 3516.09,2878.79C3513.93,2868.81 3511.55,2858.87 3509.55,2848.86C3508.29,2842.51 3507.26,2836.08 3506.64,2829.65C3505.34,2816.21 3505.99,2802.75 3507.17,2789.33C3509.33,2764.65 3512.96,2740.22 3521.22,2716.74C3527.09,2700.05 3529.34,2682.3 3536.3,2665.94C3537.66,2662.75 3538.37,2659.29 3539.66,2656.06C3544.47,2644.03 3548.96,2631.85 3554.4,2620.11C3560.16,2607.69 3566.92,2595.73 3573.13,2583.51C3574.01,2581.77 3574.69,2579.71 3574.69,2577.8C3574.68,2575.74 3574.26,2572.37 3573.11,2571.93C3571.2,2571.18 3567.87,2571.5 3566.33,2572.79C3557.34,2580.36 3543.57,2593.38 3543.57,2593.38C3527.82,2613.35 3507.07,2626.11 3505.4,2638.09C3505.34,2638.51 3505.49,2640.03 3504.78,2641.95C3502.96,2646.85 3501.28,2651.84 3499.95,2656.9C3493.49,2681.51 3488.48,2706.46 3480.92,2730.84C3473.47,2754.87 3463.82,2777.72 3450.64,2799.06C3441.6,2813.71 3432.52,2828.37 3422.67,2842.48C3412.69,2856.78 3402.36,2870.92 3391.06,2884.18C3377.81,2899.74 3363.5,2914.42 3349.35,2929.2C3335.03,2944.16 3320.43,2958.88 3305.79,2973.53C3294.31,2985.01 3282.1,2995.78 3271.09,3007.67C3258.05,3021.75 3245.8,3036.58 3233.48,3051.32C3223.26,3063.54 3212.58,3075.46 3205.31,3089.87C3202.38,3095.66 3199.47,3101.47 3196.21,3107.08C3185.24,3125.99 3181.49,3132.97 3158.78,3171.04C3141.25,3200.44 3145.07,3194.83 3135.23,3210.97C3117.98,3239.26 3114.07,3243.65 3108.67,3256.13C3106.91,3260.2 3107.05,3260.62 3103.52,3271.11C3088.25,3316.39 3072.92,3349.52 3068.54,3358.83C3060.71,3375.48 3061.9,3371.27 3057.2,3381.79C3040.7,3418.77 3035.56,3450.86 3032.04,3472.85C3029.33,3489.71 3026.1,3512.26 3026.93,3542.21C3027.63,3567.19 3032.31,3591.82 3039.28,3615.9C3041,3621.84 3043.27,3627.66 3045.78,3633.32C3051.96,3647.23 3058.5,3660.98 3064.75,3674.86C3069.67,3685.77 3074.44,3696.74 3079.17,3707.74C3084.88,3721.01 3093.57,3732.89 3097.41,3747.05C3099.76,3755.71 3102,3764.46 3105.2,3772.82C3112,3790.6 3116.79,3808.93 3118.2,3827.79C3119.77,3848.68 3124.68,3869.15 3125.12,3890.14C3125.18,3892.83 3126.13,3895.52 3126.73,3898.19C3128.05,3904.02 3129.43,3909.82 3130.74,3915.65C3131.6,3919.5 3132,3923.51 3133.28,3927.21C3135.46,3933.51 3138.03,3939.68 3140.67,3945.81C3144.62,3954.96 3148.91,3963.97 3152.79,3973.15C3155.79,3980.25 3158.05,3987.69 3161.32,3994.66C3163.06,3998.38 3165.76,4001.98 3168.86,4004.67C3174.49,4009.54 3179.48,4007.73 3180.64,4000.48C3182.29,3990.15 3183.92,3979.76 3184.55,3969.33C3185.75,3949.58 3187.63,3930.09 3194.74,3911.33C3201.19,3894.32 3206.13,3876.71 3213.09,3859.92C3223.04,3835.98 3229.13,3811.15 3233.21,3785.71C3235.46,3771.67 3236.95,3757.49 3239.37,3743.47C3240.7,3735.77 3242.97,3728.18 3247.86,3721.42C3253.62,3750.75 3257.3,3770.59 3259.76,3784.94C3260.7,3790.4 3262.72,3800.07 3266.91,3819.36C3267.91,3823.96 3269.04,3828.57 3270.58,3833.02C3272.38,3838.2 3274.53,3843.27 3276.82,3848.26C3278.26,3851.4 3280.17,3854.33 3281.96,3857.3C3287.77,3866.9 3294.03,3876.25 3299.29,3886.14C3302.3,3891.78 3304.04,3898.18 3305.72,3904.41C3307.35,3910.41 3308.2,3916.63 3309.37,3922.76C3312.18,3937.45 3314.36,3952.31 3317.98,3966.81C3321.59,3981.31 3326.5,3995.49 3331.13,4009.72C3332.82,4014.92 3335.7,4019.74 3337.42,4024.94C3342.51,4040.33 3347.63,4055.72 3352.09,4071.29C3357.32,4089.51 3361.86,4107.92 3366.7,4126.25C3371.69,4145.14 3375.31,4164.19 3374.71,4183.88C3374.59,4187.77 3375.65,4191.79 3376.71,4195.6C3377.79,4199.47 3379.63,4204.28 3383.96,4204.03C3387.38,4203.84 3390.65,4200.39 3393.92,4198.28C3394.49,4197.92 3394.87,4197.1 3395.12,4196.42C3398.01,4188.46 3401.51,4180.65 3403.53,4172.48C3405.44,4164.79 3406.1,4156.73 3406.75,4148.79C3408.08,4132.72 3412.17,4117.32 3417.47,4102.21C3421.1,4091.86 3425.14,4081.65 3429.01,4071.39C3429.98,4068.82 3431.09,4066.3 3431.94,4063.69C3435.79,4051.85 3439.71,4040.03 3443.31,4028.11C3444.44,4024.34 3444.29,4020.18 3445.35,4016.38C3447.41,4008.97 3450.41,4001.79 3452.11,3994.31C3454.2,3985.08 3455.81,3975.69 3456.84,3966.28C3458.79,3948.46 3461.59,3930.8 3465.03,3913.22C3465.69,3909.8 3466.16,3906.34 3466.92,3902.95C3471.22,3883.7 3475.6,3864.47 3479.93,3845.23C3481.68,3837.45 3483.14,3829.59 3485.21,3821.89C3485.44,3821.01 3485.84,3820.44 3485.94,3820.21C3507.04,3773.34 3512.53,3728.53 3512.53,3728.53C3514.81,3709.9 3514.92,3695.2 3514.43,3688.93C3512.67,3666.08 3509.42,3643.31 3505.91,3620.64C3503.77,3606.82 3502.19,3593.02 3501.44,3579.08C3501.08,3572.6 3500.72,3569.37 3500.59,3565.66C3499.63,3538.1 3504.78,3528.37 3505.78,3497.02C3506.07,3487.73 3506.07,3488.25 3506.05,3480.67C3506.03,3474.22 3505.85,3460.87 3505.74,3456.17C3505.38,3440.86 3503.05,3427.65 3501.96,3414.88C3498.73,3377.14 3508.18,3366.6 3505.07,3327.55C3504.46,3319.86 3502.89,3312.24 3502.53,3304.54C3502.02,3293.49 3500.04,3282.79 3496.87,3272.24C3495.3,3266.99 3493.92,3261.68 3492.61,3256.37C3489.68,3244.49 3486.51,3232.66 3480.4,3221.98C3463.51,3192.46 3461.23,3174.71 3457.74,3162.66C3451.41,3140.82 3448.36,3120.29 3449.71,3119.93C3450.66,3119.68 3452.82,3129.4 3460.25,3146.4C3471.32,3171.76 3481.71,3185.87 3487.26,3191.95C3489.64,3194.56 3491.51,3196.71 3493.17,3198.66C3493.17,3198.66 3500.83,3207.58 3506.82,3215.51C3512.1,3222.5 3525.44,3243.37 3539.66,3284.09C3549.49,3312.21 3554.34,3326.54 3551.57,3339.66C3548.39,3354.69 3538.76,3354.49 3538.21,3372.73C3537.71,3389.09 3539.87,3405.59 3541.68,3421.95C3542.96,3433.58 3548.74,3443.9 3554.97,3453.47C3562.16,3464.54 3570.77,3474.73 3581.31,3482.94C3589.75,3489.52 3598.43,3495.8 3607.09,3502.09C3613.95,3507.08 3620.79,3512.1 3627.92,3516.66C3630.23,3518.13 3633.88,3519.45 3636.16,3518.65C3642.2,3516.56 3648.06,3513.97 3652.25,3508.35C3657.29,3501.57 3662.82,3495.03 3668.9,3489.18C3673.21,3485.03 3674.82,3480.58 3673.83,3475.13C3672.9,3470 3671.46,3464.93 3670.01,3459.91C3667.38,3450.83 3664.03,3441.93 3661.97,3432.73C3658.56,3417.53 3654.02,3402.85 3645.99,3389.42C3642.81,3384.11 3640.05,3378.06 3634.7,3371.07C3628.68,3363.2 3606.63,3334.37 3577.76,3332.58C3571.51,3332.19 3565.54,3333.11 3561.85,3328.92C3558.13,3324.7 3558.89,3320.16 3556.82,3307.89C3555.94,3302.72 3555.99,3304.94 3551.21,3286.02C3547.21,3270.15 3547.17,3268.58 3544.78,3259.23C3541.66,3247.08 3539.43,3236.76 3534.58,3225.76C3528.97,3213.03 3521.53,3201.07 3514.43,3189.05C3507.72,3177.68 3500.36,3166.71 3493.41,3155.49C3490.4,3150.63 3487.26,3145.78 3484.93,3140.58C3479.53,3128.52 3474.62,3116.24 3469.45,3104.07C3453.95,3067.54 3453.53,3070.81 3451,3060.69C3446.7,3043.54 3449.6,3021.04 3455.39,2976.03C3455.62,2974.28 3455.95,2971.16 3456.74,2967.23C3457.63,2962.87 3459.03,2958.58 3459.59,2954.18C3462.22,2933.9 3464.6,2913.59 3467.15,2893.3C3467.8,2888.1 3468.28,2882.82 3469.64,2877.79C3472.37,2867.69 3475.67,2857.74 3478.7,2847.72C3479.46,2845.21 3480.06,2842.64 3483.09,2840.88C3483.34,2842.41 3483.7,2844.61 3484.17,2847.27C3486.88,2862.62 3491.7,2885.26 3500.96,2913.42C3509.72,2940.06 3510.13,2934.15 3514.55,2950.49C3516.66,2958.31 3518.23,2964.03 3519.78,2970.67C3523.18,2985.26 3523.41,2989.79 3525.63,3000.71C3531.77,3030.76 3538.19,3036.61 3540.73,3062.16C3541.01,3064.95 3541.28,3068.71 3541.67,3076.25C3542.37,3089.72 3542.61,3103.22 3543.19,3116.7C3543.69,3128.41 3543.75,3140.15 3544.89,3151.8C3547.33,3176.59 3555.65,3199.97 3564.23,3223.08C3569.76,3237.98 3576.9,3252.39 3584.42,3266.43C3593.24,3282.89 3603.11,3298.81 3612.83,3314.79C3619.56,3325.85 3626.13,3337.12 3633.96,3347.39C3642.04,3357.99 3654.36,3376.05 3672.37,3394.33C3683.02,3405.13 3678.77,3399.11 3719.45,3434.38C3719.45,3434.38 3747.16,3459.82 3758.69,3480.67C3759.31,3481.79 3760.76,3484.92 3762.44,3488.6C3765.98,3496.31 3767.97,3501.39 3769.01,3503.87C3772.34,3511.78 3770.08,3517.17 3795.09,3543.97C3796.61,3545.59 3797.67,3547.64 3798.85,3549.56C3808.98,3566.03 3821.15,3580.9 3834.98,3594.33C3845.16,3604.22 3856.84,3612.51 3866.27,3623.25C3869.23,3626.62 3872.3,3630.03 3875.89,3632.65C3893.39,3645.46 3905.67,3663 3917.26,3680.61C3929.15,3698.66 3938.52,3718.38 3948.95,3737.4C3952.78,3744.37 3957.22,3753.37 3964.47,3765.93C3971.55,3778.16 3973.65,3780.84 3980.06,3791.64C3995.08,3816.92 3991.53,3817.1 4002.07,3832.07C4011.09,3844.88 4019.12,3858.37 4030.33,3869.65C4035.86,3875.21 4040.29,3882.08 4044.27,3888.91C4049.13,3897.26 4055.34,3904.25 4062.47,3910.54C4065.36,3913.08 4069.01,3913 4072.41,3911.75C4075.49,3910.62 4075.87,3907.58 4075.83,3904.83C4075.76,3899.63 4076.15,3894.24 4074.95,3889.27Z" style="fill:white;fill-rule:nonzero;"/>
        </g>
    </g>
</svg>
