<?xml version="1.0" encoding="UTF-8" standalone="no"?>
<!DOCTYPE svg PUBLIC "-//W3C//DTD SVG 1.1//EN" "http://www.w3.org/Graphics/SVG/1.1/DTD/svg11.dtd">
<svg width="100%" height="100%" viewBox="0 0 1832 1832" version="1.1" xmlns="http://www.w3.org/2000/svg" xmlns:xlink="http://www.w3.org/1999/xlink" xml:space="preserve" xmlns:serif="http://www.serif.com/" style="fill-rule:evenodd;clip-rule:evenodd;stroke-linejoin:round;stroke-miterlimit:2;">
    <rect id="Artboard1" x="0" y="0" width="1831.04" height="1831.04" style="fill:rgb(4,90,41);"/>
    <g id="Artboard11" serif:id="Artboard1">
        <g transform="matrix(4.16667,0,0,4.16667,-496.953,-371.732)">
            <text x="301.851px" y="180.134px" style="font-family:'ConcourseC3', 'Concourse C3';font-weight:300;font-size:18px;fill:white;">Jo<tspan x="322.664px 328.3px 340.057px 345.184px 359.101px " y="180.134px 180.134px 180.134px 180.134px 180.134px ">in Us</tspan>!</text>
            <text x="255.231px" y="223.974px" style="font-family:'ConcourseC3', 'Concourse C3';font-weight:300;font-size:18px;fill:white;">Bu<tspan x="278.024px 287.981px 297.937px 307.354px 317.49px 334.647px 344.243px 349.371px 361.127px 370.544px 381.04px 386.167px 400.084px 405.72px " y="223.974px 223.974px 223.974px 223.974px 223.974px 223.974px 223.974px 223.974px 223.974px 223.974px 223.974px 223.974px 223.974px 223.974px ">tterﬂy Red Hil</tspan>l</text>
            <text x="223.143px" y="245.894px" style="font-family:'ConcourseC3', 'Concourse C3';font-weight:300;font-size:18px;fill:white;">3p<tspan x="242.696px 256.073px 262.249px 267.376px 277.873px 287.829px 298.866px 303.993px 315.749px 324.626px 329.753px 344.749px 355.066px 365.022px 376.779px 386.195px 395.612px 405.748px 410.875px 421.552px 433.128px 443.805px " y="245.894px 245.894px 245.894px 245.894px 245.894px 245.894px 245.894px 245.894px 245.894px 245.894px 245.894px 245.894px 245.894px 245.894px 245.894px 245.894px 245.894px 245.894px 245.894px 245.894px 245.894px 245.894px ">m, 8th of October 2022</tspan></text>
            <text x="205.077px" y="267.814px" style="font-family:'ConcourseC3', 'Concourse C3';font-weight:300;font-size:18px;fill:white;">13<tspan x="224.45px 234.946px 240.073px 253.27px 263.406px 273.363px 284.399px 295.796px 305.932px 315.349px 320.476px 331.152px 340.569px 350.885px 360.842px 365.969px 377.725px 388.222px 394.398px 399.525px 411.282px 420.698px 431.195px 436.322px 450.238px 455.875px 464.211px " y="267.814px 267.814px 267.814px 267.814px 267.814px 267.814px 267.814px 267.814px 267.814px 267.814px 267.814px 267.814px 267.814px 267.814px 267.814px 267.814px 267.814px 267.814px 267.814px 267.814px 267.814px 267.814px 267.814px 267.814px 267.814px 267.814px 267.814px ">8 Arthurs Seat Rd, Red Hill</tspan></text>
            <text x="234.04px" y="289.734px" style="font-family:'ConcourseC3', 'Concourse C3';font-weight:300;font-size:18px;fill:white;">Bo<tspan x="257.193px 268.95px 280.706px 294.983px 306.379px 316.516px 326.652px 338.049px 349.805px 360.842px 365.969px 378.985px 390.742px 402.138px 413.895px 423.851px 433.988px " y="289.734px 289.734px 289.734px 289.734px 289.734px 289.734px 289.734px 289.734px 289.734px 289.734px 289.734px 289.734px 289.734px 289.734px 289.734px 289.734px 289.734px ">onwurrung Country</tspan></text>
            <text x="286.674px" y="464.774px" style="font-family:'ConcourseC3', 'Concourse C3';font-weight:300;font-size:18px;fill:white;">EN<tspan x="312.527px 323.924px 334.78px 346.537px 351.664px 362.341px 368.697px " y="464.774px 464.774px 464.774px 464.774px 464.774px 464.774px 464.774px ">TER SIT</tspan>E</text>
        </g>
        <g transform="matrix(0.268671,0,0,0.268671,664.003,277.779)">
            <path d="M1681.64,4055.45C1673.46,4060.24 1615.89,3984.14 1568.97,3903.17C1550.23,3870.84 1536.35,3843.18 1527.25,3824.13C1526.35,3822.41 1525.44,3820.69 1524.52,3818.99C1513.93,3799.43 1504.83,3779.32 1498.36,3757.94C1489.6,3728.96 1485.69,3705.6 1483.75,3690.85C1481.04,3670.31 1481.1,3658.71 1476.85,3627.17C1474.07,3606.55 1471.53,3596.6 1470.01,3591.41C1468.25,3585.42 1465.98,3579.43 1464.8,3573.24C1464.45,3571.42 1464.9,3569.36 1465.34,3567.5C1466.56,3562.31 1464.5,3556.15 1459.68,3554.34C1455.07,3552.6 1453.65,3548.77 1451.51,3545.26C1448.15,3539.76 1445.45,3533.74 1441.41,3528.81C1431.06,3516.18 1422.27,3502.68 1415.63,3487.77C1415.33,3487.08 1415.18,3486.19 1414.66,3485.76C1404.81,3477.63 1401.52,3464.76 1392.71,3455.73C1384.27,3447.08 1377.01,3437.3 1369.04,3428.2C1366.77,3425.62 1363.76,3423.69 1361.17,3421.39C1360.01,3420.37 1359.03,3419.15 1357.59,3417.63C1358.99,3417.54 1359.57,3417.31 1359.89,3417.5C1373.96,3425.99 1388.41,3433.94 1401.95,3443.21C1413.12,3450.85 1421.72,3461.33 1428.48,3473.22C1440.43,3494.24 1452.01,3515.49 1466.69,3534.82C1467.78,3536.26 1468.59,3537.68 1469,3539.3C1469.54,3541.4 1469.26,3543.06 1469.2,3543.69C1468.99,3546.03 1470.41,3549.76 1477.93,3555.73C1478.22,3555.97 1478.55,3556.25 1478.9,3556.55C1479.48,3557.04 1479.95,3557.42 1480.01,3557.46C1480.98,3558.23 1484.71,3559.31 1486.52,3557.79C1488.27,3556.33 1488.14,3552.79 1487.14,3550.99C1483.57,3544.54 1479.52,3538.31 1475.26,3532.27C1469.36,3523.91 1463.09,3515.8 1457.02,3507.57C1456.28,3506.57 1455.61,3505.5 1455.11,3504.38C1448.82,3490.24 1440.95,3476.98 1432.56,3464.02C1431.22,3461.95 1429.49,3460.13 1428.02,3458.13C1426.46,3456.01 1424.99,3453.81 1423.48,3451.65C1423.87,3451.26 1424.25,3450.88 1424.64,3450.49C1426.04,3451.6 1427.62,3452.54 1428.81,3453.84C1437.18,3463.07 1445.47,3472.38 1453.81,3481.64C1454.97,3482.93 1456.13,3484.33 1457.56,3485.27C1465.3,3490.4 1470.1,3498.09 1474.75,3505.7C1478.71,3512.17 1484.39,3516.4 1490.51,3520.25C1492.94,3521.78 1495.94,3523.28 1498.74,3520.64C1501.23,3518.29 1501.68,3514.6 1499.85,3511.11C1498.36,3508.29 1496.63,3505.59 1494.9,3502.66C1492.76,3503.15 1491.1,3503.53 1489.44,3503.9C1485.94,3504.68 1483.34,3503.78 1480.99,3500.76C1475.96,3494.29 1470.73,3487.94 1465.21,3481.88C1456.02,3471.78 1446.66,3461.84 1437.15,3452.06C1433.36,3448.17 1428.98,3444.87 1424.85,3441.32C1424.29,3440.84 1423.34,3440.65 1423.03,3440.08C1417.58,3430.07 1407.8,3423.99 1401.04,3414.35C1405.14,3415.54 1409.28,3416.62 1413.33,3417.95C1417.35,3419.26 1421.18,3421.57 1425.28,3422.12C1437.51,3423.78 1446.1,3431.29 1454.51,3439.19C1460.88,3445.17 1467.36,3451.08 1473.17,3457.57C1480.48,3465.73 1488.46,3473.72 1493.7,3483.15C1498.39,3491.59 1504.42,3498.48 1510.57,3505.55C1512.94,3508.27 1515.78,3509.13 1519.29,3508.51C1525.36,3507.43 1528.6,3502.17 1526.64,3496.32C1525.04,3491.51 1521.95,3488.21 1517.09,3486.52C1514.04,3485.46 1511.14,3484 1508.1,3482.92C1502.61,3480.96 1499.53,3476.68 1496.09,3472.25C1490.47,3464.98 1483.96,3458.37 1477.54,3451.76C1473.73,3447.84 1469.29,3444.54 1465.32,3440.76C1463.8,3439.31 1462.83,3437.31 1460.84,3434.46C1464.11,3434.58 1466.07,3434.37 1467.89,3434.76C1479.56,3437.3 1490.06,3442.32 1499.17,3450.09C1510.44,3459.69 1522.73,3467.71 1536.21,3473.82C1539.27,3475.21 1538.11,3475.39 1542.61,3478.83C1549.47,3484.08 1551.57,3485.31 1553.22,3488.3C1554.99,3491.52 1555.15,3494.56 1555.08,3495.92C1554.57,3505.51 1567.73,3535.95 1576.15,3564.46C1578.88,3573.71 1581.54,3585.91 1586.3,3610.43C1590.86,3633.93 1594.02,3657.75 1599.59,3680.99C1604.28,3700.58 1611.61,3719.54 1617.65,3738.81C1623.7,3758.08 1625.39,3777.91 1624.79,3797.97C1624.49,3808.19 1623.96,3818.4 1623.4,3828.6C1622.88,3838.04 1622.68,3847.53 1621.49,3856.88C1618.55,3879.8 1625.04,3900.88 1633.33,3921.65C1637.3,3931.61 1640.83,3941.85 1645.88,3951.25C1653.1,3964.69 1656.13,3979.94 1664.73,3992.73C1666.63,3995.55 1667.24,3999.22 1668.47,4002.49C1673.36,4015.47 1675.9,4021.92 1676.45,4023.48C1679.45,4031.94 1685.52,4053.17 1681.64,4055.45ZM1675.88,4061.92C1674.21,4063.45 1654.66,4046.61 1639.69,4030.57C1632.23,4022.57 1626.68,4018.33 1615.97,4004.7C1611.09,3998.5 1605.34,3993.54 1599.46,3988.54C1589.01,3979.66 1578.32,3971.04 1568.26,3961.73C1562.77,3956.65 1558.01,3954.82 1548.84,3949.27C1491.77,3914.76 1489.03,3912.85 1484.19,3907.77C1474.13,3897.21 1471.88,3892.22 1458.52,3877.37C1453.19,3871.45 1447.33,3866.01 1441.8,3860.26C1438.35,3856.68 1435.08,3852.93 1431.74,3849.24C1427.57,3844.61 1423.27,3840.08 1419.3,3835.28C1415.51,3830.71 1411.89,3825.97 1408.54,3821.07C1402.08,3811.59 1395.63,3802.09 1389.61,3792.33C1381.12,3778.58 1372.99,3764.65 1367.83,3749.15C1361.84,3731.16 1357.23,3712.85 1353.8,3694.24C1352.19,3685.46 1351.17,3676.56 1349.57,3667.78C1348.58,3662.41 1349.08,3657.3 1351.28,3652.44C1352.95,3648.76 1352.1,3646.44 1348.8,3644.28C1346.34,3642.66 1344.21,3640.5 1342.09,3638.42C1336.41,3632.87 1331.26,3626.68 1325.09,3621.78C1318.01,3616.15 1316.17,3608.1 1313.45,3600.49C1307.33,3583.33 1300.2,3566.66 1291.85,3550.48C1289,3544.96 1286.65,3539.17 1284.24,3533.43C1283.75,3532.26 1283.99,3530.78 1285.16,3528.97C1287.21,3532.3 1289.79,3535.42 1291.21,3539C1294.88,3548.31 1301.29,3555.52 1307.84,3562.78C1314.19,3569.81 1320.51,3576.93 1326.06,3584.58C1330.42,3590.59 1333.71,3597.4 1337.25,3603.96C1341.59,3612.02 1345.76,3620.18 1349.9,3628.35C1351.7,3631.9 1353.14,3635.63 1354.92,3639.19C1358.48,3646.29 1362.13,3653.36 1365.84,3660.39C1366.88,3662.34 1368.11,3664.71 1370.91,3663.81C1373.84,3662.87 1376.49,3661.12 1376.59,3657.61C1376.69,3654.3 1376.06,3650.86 1372.73,3649.26C1368.67,3647.29 1367.31,3643.84 1366.01,3639.93C1364.76,3636.19 1362.69,3632.75 1361.13,3629.1C1358.2,3622.21 1355.44,3615.25 1352.47,3608.38C1351.7,3606.58 1350.77,3604.09 1349.29,3603.5C1343.4,3601.15 1342.32,3595.43 1339.29,3590.99C1332.84,3581.53 1326.74,3571.59 1318.86,3563.43C1307.35,3551.51 1299.39,3537.64 1292.08,3523.11C1288.29,3515.56 1283.7,3508.41 1279.95,3500.84C1276.97,3494.83 1274.78,3488.43 1272.11,3482.26C1268.68,3474.32 1265.03,3466.47 1261.63,3458.52C1260.12,3454.98 1259.01,3451.27 1258.46,3447.24C1267.18,3453.13 1275.64,3458.4 1279.71,3469.05C1286.65,3487.22 1294.12,3505.25 1305.1,3521.54C1308.44,3526.5 1311.13,3531.89 1314.13,3537.07C1322.12,3550.83 1333.5,3561.74 1344.29,3573.17C1348.71,3577.86 1353.05,3582.83 1356.36,3588.31C1360.72,3595.55 1364.19,3603.35 1367.74,3611.05C1369.25,3614.33 1368.24,3616.41 1369.55,3620.64C1371.48,3626.87 1373.08,3626.97 1374.65,3633.08C1375.46,3636.19 1375.57,3638.2 1377.22,3641.26C1378.31,3643.28 1379.54,3644.77 1380.43,3645.72C1385.56,3642.38 1387.02,3638.7 1384.94,3633.71C1380.23,3622.46 1375.81,3611.08 1370.84,3599.94C1367.91,3593.37 1364.2,3587.14 1360.75,3580.8C1356.02,3572.09 1348.54,3565.72 1341.64,3558.89C1328.19,3545.58 1317.79,3530.19 1309.45,3513.25C1306.29,3506.82 1302.61,3500.57 1298.48,3494.71C1295.11,3489.93 1294.34,3484.3 1292,3479.23C1291.9,3479.02 1292.52,3478.48 1293.07,3477.74C1297.08,3481.41 1301.06,3485.07 1305.07,3488.7C1313.38,3496.23 1321.7,3503.77 1330.04,3511.28C1331.52,3512.61 1333.02,3514.01 1334.72,3515.01C1350.2,3524.05 1358.83,3538.51 1365.5,3554.32C1372.19,3570.19 1378.54,3586.17 1387.67,3600.89C1389.43,3603.72 1390.07,3607.26 1391.21,3610.43C1400.82,3607.78 1402.52,3603.44 1396.48,3596.93C1389.29,3589.18 1386.66,3579.11 1382.02,3570.06C1376.8,3559.87 1371.64,3549.64 1366.42,3539.43C1365.63,3537.88 1364.47,3536.49 1363.91,3534.87C1361.08,3526.69 1355.07,3521.07 1348.68,3515.8C1339.46,3508.19 1329.79,3501.11 1320.93,3493.12C1309.47,3482.79 1298.04,3472.31 1287.71,3460.9C1280.53,3452.97 1276.5,3442.96 1277.89,3430.57C1285.54,3436.78 1292.49,3442.31 1299.31,3447.99C1311.38,3458.04 1323.71,3467.82 1335.31,3478.38C1346.74,3488.8 1357.98,3499.74 1365.97,3513.06C1370.78,3521.07 1373.12,3530.55 1376.79,3539.28C1384.43,3557.44 1392.19,3575.55 1399.99,3593.64C1401.66,3597.52 1404.03,3601.11 1405.48,3605.05C1406.26,3607.16 1405.76,3609.73 1405.81,3611.39C1409.08,3614.97 1412.23,3618.06 1414.93,3621.49C1416.53,3623.53 1417.9,3626.29 1420.67,3624.33C1423.02,3622.66 1425.07,3619.84 1423.59,3616.54C1422.58,3614.3 1421.09,3612.16 1419.4,3610.37C1413.47,3604.11 1409.41,3596.76 1405.92,3588.96C1403.88,3584.42 1401.06,3580.25 1398.85,3575.78C1397.8,3573.66 1397.35,3571.24 1397.73,3568.38C1403.16,3574.6 1408.37,3581.03 1414.07,3587C1424.05,3597.45 1434.13,3607.77 1442.52,3619.66C1446.66,3625.52 1450.06,3624.96 1454.47,3618.47C1453.07,3615.12 1451.51,3612.11 1447.55,3610.44C1445.24,3609.46 1443.56,3606.85 1441.75,3604.84C1439.26,3602.06 1436.98,3599.1 1434.5,3596.32C1431.28,3592.71 1430.45,3590.51 1433.29,3587.09C1442.56,3575.91 1437.37,3565.47 1431.97,3555.23C1426.74,3545.32 1421.05,3535.64 1415.12,3526.13C1407.76,3514.34 1400.77,3502.37 1390.13,3492.81C1380.33,3484 1370.22,3475.58 1360.3,3466.94C1356.83,3463.92 1354.04,3460.14 1350.72,3456.46C1352.19,3455.86 1352.81,3455.4 1353.02,3455.54C1364.45,3463.5 1376.15,3471.11 1387.17,3479.62C1401.19,3490.45 1414.64,3501.9 1423.87,3517.59C1429.17,3526.6 1436.06,3534.65 1441.69,3543.48C1448.1,3553.56 1454.65,3563.67 1459.7,3574.44C1463.36,3582.24 1465.35,3591.01 1466.9,3599.55C1468.26,3607.09 1469.28,3612.79 1469.62,3615.29C1475.31,3657.96 1476.92,3682.35 1483.16,3712.97C1487.88,3736.17 1492.87,3752.75 1496.13,3761.32C1499.49,3770.16 1503.23,3778.88 1506.33,3787.81C1513.3,3807.82 1523.44,3826.29 1533.7,3844.67C1534.32,3845.79 1534.96,3846.93 1535.61,3848.09C1549.12,3878.52 1578.33,3933.89 1620.95,3990.54C1647.88,4026.33 1678.1,4059.89 1675.88,4061.92ZM1312.65,3649.45C1311.62,3652.16 1310.32,3654.76 1308.63,3658.54C1305.84,3655.42 1303.42,3653.09 1301.43,3650.45C1293.65,3640.12 1286.18,3629.55 1278.24,3619.35C1274.37,3614.39 1272.4,3608.75 1271.7,3602.89C1270.52,3592.85 1270.08,3582.69 1271.33,3572.6C1271.86,3572.37 1272.39,3572.15 1272.91,3571.93C1274.19,3573.33 1275.74,3574.56 1276.68,3576.15C1283.97,3588.48 1293.01,3599.56 1303.74,3608.78C1315.58,3618.95 1316.51,3639.33 1312.65,3649.45ZM1285.22,3672.32C1284.71,3672.57 1284.21,3672.83 1283.71,3673.08C1280.26,3668.4 1276.83,3663.7 1273.37,3659.03C1268.95,3653.06 1264.59,3647.05 1260.05,3641.17C1250.77,3629.17 1241.37,3617.27 1232.09,3605.27C1231.2,3604.13 1230.4,3602.67 1230.2,3601.27C1228.31,3588.17 1231.24,3575.87 1236.43,3562.59C1240.26,3569.02 1243.55,3574.23 1246.53,3579.6C1252.2,3589.83 1257.81,3600.09 1263.19,3610.47C1264.89,3613.75 1266.56,3617.36 1266.95,3620.96C1268.42,3634.36 1273.5,3646.38 1279.55,3658.19C1281.86,3662.68 1283.35,3667.6 1285.22,3672.32ZM1229.34,3484.14C1228.94,3482.22 1228.77,3480.24 1228.53,3478.28C1227.97,3473.63 1227.39,3468.98 1226.89,3464.32C1226.72,3462.74 1226.8,3461.13 1226.76,3459.53C1227.3,3459.46 1227.84,3459.39 1228.38,3459.32C1228.97,3460.06 1229.81,3460.72 1230.12,3461.57C1235.3,3475.85 1241.23,3489.81 1244.24,3504.88C1246.57,3516.52 1249.82,3528.01 1256.38,3538.44C1259.42,3543.27 1260.55,3549.66 1261.27,3555.5C1262.28,3563.64 1262.19,3571.92 1262.34,3580.14C1262.38,3582.47 1261.65,3584.82 1261.05,3588.58C1259.29,3586.11 1258.25,3584.87 1257.46,3583.49C1251.47,3572.9 1247.43,3561.22 1239.43,3551.72C1237.99,3550 1237.56,3547.13 1237.34,3544.73C1236.2,3532.34 1235.66,3519.89 1234.17,3507.55C1233.22,3499.67 1230.96,3491.95 1229.34,3484.14ZM1228.95,3555.83C1227.05,3564.57 1225.17,3573.32 1223.22,3582.05C1222.97,3583.17 1222.34,3584.2 1221.66,3585.79C1215.05,3578.43 1212.16,3570.04 1210.51,3561.37C1208.1,3548.7 1205.32,3536.03 1206.16,3522.94C1206.74,3513.96 1206.93,3504.96 1208.73,3495.69C1209.27,3496.58 1210.13,3497.42 1210.32,3498.38C1213.39,3513.62 1218.72,3527.99 1226.54,3541.45C1229.14,3545.9 1230.06,3550.71 1228.95,3555.83ZM1212.52,3681.65C1211.51,3676.58 1210.24,3671.56 1208.91,3666.57C1207.19,3660.14 1205.24,3653.77 1203.51,3647.35C1201.32,3639.21 1199.26,3631.05 1197.15,3622.89C1196.71,3621.21 1196.07,3619.54 1195.92,3617.83C1194.76,3604.76 1189.89,3592.65 1185.69,3580.47C1185.69,3580.47 1182.84,3569.29 1180.83,3557.3C1175.74,3526.91 1177.96,3498.33 1180.19,3498.19C1181.86,3498.09 1181.18,3514.05 1189.69,3538.1C1195.11,3553.42 1199.88,3560.96 1204.99,3572.32C1209.38,3582.09 1213.98,3591.78 1218.22,3601.61C1219.02,3603.47 1218.93,3605.89 1218.67,3607.98C1217.61,3616.37 1216.12,3624.7 1215.19,3633.1C1214.38,3640.52 1213.49,3648.02 1213.75,3655.45C1214.08,3664.62 1215.07,3673.78 1218.08,3682.68C1219.96,3688.25 1220.47,3694.29 1221.59,3700.12C1215.27,3695.51 1213.9,3688.61 1212.52,3681.65ZM1192.6,3488.45C1195.09,3482.26 1196.61,3475.69 1198.64,3469.31C1199.42,3466.85 1200.47,3464.47 1201.39,3462.05C1201.87,3462.2 1202.36,3462.35 1202.84,3462.51C1201.01,3485.75 1199.18,3509 1197.35,3532.24C1196.86,3532.29 1196.38,3532.35 1195.9,3532.4C1194.48,3524.03 1193.03,3515.66 1191.68,3507.28C1191.33,3505.08 1191.69,3502.71 1191.05,3500.63C1189.71,3496.23 1190.96,3492.53 1192.6,3488.45ZM1226.12,3513.34C1218.25,3494.81 1213.5,3475.6 1213.98,3455.21C1221.97,3473.74 1223.17,3493.72 1226.12,3513.34ZM836.74,3087.02C842.156,3075.41 847.608,3065.52 851.421,3055.04C855.056,3045.04 857.113,3034.45 859.614,3024.06C861.419,3016.57 862.791,3008.97 864.4,3001.43C867.312,2987.78 869.093,2973.97 870.958,2960.14C872.719,2947.09 875.736,2934.21 878.186,2921.25C878.603,2919.04 878.831,2916.79 879.336,2914.61C881.184,2906.62 883.005,2898.61 885.044,2890.67C886.643,2884.44 888.217,2878.17 890.381,2872.12C894.134,2861.64 898.421,2852.08 917.233,2821.5C929.533,2801.51 943.194,2780.04 943.194,2780.04C953.632,2763.65 956.447,2760.23 959.912,2752.86C966.013,2739.89 970.549,2726.18 975.816,2712.63C975.942,2712.84 976.63,2713.48 976.676,2714.15C977.878,2731.82 979.416,2749.47 980.012,2767.16C980.381,2778.09 979.346,2789.07 978.856,2800.02C978.399,2810.23 977.658,2820.44 977.344,2830.66C976.753,2849.9 975.134,2869.01 970.907,2887.83C967.026,2905.11 963.666,2922.54 958.86,2939.56C954.67,2954.4 948.894,2968.79 943.598,2983.3C941.04,2990.31 937.792,2997.07 935.173,3004.06C928.739,3021.23 916.942,3034.97 906.012,3049.16C902.195,3054.11 896.013,3057.27 890.816,3061.12C888.417,3062.9 885.555,3064.1 883.315,3066.04C876.592,3071.85 868.669,3075.51 860.707,3079.11C854.856,3081.76 848.956,3084.31 842.986,3086.67C841.559,3087.24 839.768,3086.89 836.74,3087.02ZM1188.42,3408.85C1174.95,3391.46 1168.21,3380.03 1168.21,3380.03C1156.1,3363.54 1149.82,3344.09 1140.44,3326.22C1129.02,3304.44 1126.37,3280.66 1123.25,3256.95C1122.41,3250.58 1122.52,3244.18 1121.46,3237.71C1119.2,3223.97 1111.09,3213.47 1103.95,3202.56C1096.46,3191.1 1087.25,3180.77 1079.03,3169.76C1073.3,3162.09 1068.42,3155.16 1062.59,3145.8C1057.4,3137.47 1057.89,3137.35 1039.96,3103.36C1025.38,3075.72 1025.69,3076.24 1025.13,3074.87C1018.27,3058.07 1017.23,3059.14 1017.1,3058.87C1002.21,3028.88 1001.27,3025.09 998.758,3025.18C992.903,3025.37 991.44,3046.18 979.476,3085.93C979.07,3087.28 975.635,3101.68 969.098,3117.08C958.277,3142.57 946.628,3167.71 935.643,3193.14C928.624,3209.38 922.26,3225.91 915.471,3242.26C912.983,3248.25 910.574,3254.35 907.321,3259.92C902.405,3268.35 902.531,3277.31 904.427,3286.08C910.929,3316.13 909.998,3346.04 904.032,3375.98C900.666,3392.87 897.396,3409.78 893.775,3426.62C892.364,3433.18 890.125,3439.57 888.229,3446.02C887.196,3449.54 884.78,3451.54 881.145,3451.67C872.14,3452 864.164,3451.79 857.136,3443.41C849.248,3434.01 839.846,3425.56 828.526,3419.62C821.502,3415.94 815.118,3410.97 808.712,3406.22C806.643,3404.68 805.414,3402.01 803.81,3399.85C802.492,3398.08 801.539,3395.76 799.807,3394.62C795.713,3391.94 795.784,3388.43 797.426,3384.8C806.198,3365.39 803.235,3362.6 819.747,3336.57C824.877,3328.48 829.133,3321.83 836.028,3313.6C838.055,3311.18 843.688,3305.04 851.415,3297.38C863.274,3285.63 878.423,3277.68 888.646,3264.03C895.65,3254.67 904.22,3246.41 909.799,3236.08C913.795,3228.69 916.35,3220.52 919.678,3212.76C924.294,3201.99 928.76,3191.15 933.774,3180.56C944.669,3157.57 955.83,3134.74 962.783,3110.08C967.316,3094 973.075,3078.28 977.823,3062.26C980.299,3053.9 981.956,3045.29 983.663,3036.73C986.343,3023.28 989.453,3009.87 991.099,2996.29C993.167,2979.23 994.389,2962.04 995.054,2944.86C995.57,2931.54 994.212,2924.89 991.979,2924.25C983.653,2921.88 976.369,2988.17 927.482,3046.77C910.236,3067.45 886.379,3089.82 875.31,3120.35C873.17,3126.26 871.712,3134.36 865.171,3144.33C856.987,3156.81 847.517,3168.48 838.126,3180.11C832.197,3187.46 825.475,3194.17 819.034,3201.1C806.247,3214.85 799.938,3221.81 797.809,3223.82C790.777,3230.44 776.126,3244.03 754.663,3253.65C745.513,3257.76 733.991,3260.47 729.672,3263.03C724.94,3265.83 718.896,3266.42 713,3268.13C707.695,3257.9 702.703,3248.18 697.629,3238.51C694.737,3233 691.797,3227.51 688.719,3222.1C686.036,3217.38 685.819,3213.17 688.67,3208.1C694.879,3197.07 699.729,3185.24 706.294,3174.43C712.217,3164.69 719.578,3155.8 726.487,3146.67C731.753,3139.71 737.562,3133.61 743.862,3128.3C764.771,3110.68 787.829,3104.76 797.371,3102.58C819.084,3097.61 819.598,3102.96 839.291,3096.85C842.743,3095.78 858.283,3091.46 875.996,3080.62C881.018,3077.54 902.691,3063.87 925.322,3032.74C947.476,3002.26 955.369,2975.92 956.279,2976.31C959.972,2966.27 962.785,2955.92 966.099,2945.74C967.797,2940.53 970,2935.47 971.516,2930.21C974.268,2920.65 977.6,2911.13 979.029,2901.35C981.695,2883.12 983.398,2864.73 985.071,2846.36C986.428,2831.46 987.243,2816.51 988.127,2801.57C988.716,2791.61 989.532,2781.61 989.292,2771.65C989.018,2760.25 988.566,2752.18 986.897,2734.42C982.016,2682.51 980.678,2676.61 978.239,2676.35C973.948,2675.91 968.417,2693.17 967.758,2695.22C967.085,2697.33 966.893,2698.59 962.645,2716.65C962.039,2719.23 961.442,2721.81 960.863,2724.39C958.303,2735.79 952.472,2745.76 946.755,2755.65C937.162,2772.26 926.961,2788.51 916.836,2804.81C913.553,2810.09 909.422,2814.85 906.184,2820.16C900.622,2829.28 895.385,2838.6 890.159,2847.92C887.964,2851.83 885.887,2855.85 884.224,2860.01C882.383,2864.61 881.16,2869.45 879.526,2874.14C869.083,2904.1 865.387,2935.33 861.604,2966.61C859.838,2981.2 856.711,2995.64 853.833,3010.08C852.078,3018.89 849.733,3027.59 847.434,3036.29C846.355,3040.36 844.995,3044.4 843.353,3048.28C838.394,3060.01 833.099,3071.59 828.221,3083.35C826.379,3087.78 823.61,3089.82 818.805,3090.52C806.965,3092.25 795.054,3093.93 783.478,3096.85C775.352,3098.9 767.185,3102.03 759.992,3106.29C742.985,3116.36 727.166,3128.02 715.23,3144.3C702.516,3161.64 691.452,3179.92 681.826,3199.12C680.273,3202.22 678.155,3205.05 676.133,3207.89C673.832,3211.12 673.343,3214.65 675.776,3217.63C684.951,3228.87 688.243,3243.12 695.448,3255.36C697.837,3259.42 699.238,3264.04 701.369,3268.27C705.084,3275.64 709.104,3277.4 717.244,3275.89C720.274,3275.33 723.38,3275.18 726.638,3274.82C727.562,3281 723.992,3284.76 722.584,3289.15C717.789,3304.09 709.9,3317.77 705.396,3332.96C702.179,3343.8 696.004,3353.81 690.732,3363.97C688.219,3368.82 684.398,3372.97 681.784,3377.78C679.36,3382.23 675.74,3384.84 671.454,3387.07C655.276,3395.47 641.889,3407.29 630.083,3421.06C619.945,3432.88 609.109,3444.11 594.595,3450.45C586.191,3454.11 577.239,3456.77 568.3,3458.91C554.572,3462.18 541.404,3466.88 529.801,3474.74C521.399,3480.44 513.844,3487.51 506.472,3494.56C498.379,3502.29 490.838,3510.62 483.253,3518.86C480.914,3521.41 478.878,3524.37 477.299,3527.44C473.545,3534.76 475.544,3537.63 484.645,3537.54C485.9,3527.58 491.849,3519.9 498.702,3512.98C506.406,3505.2 514.414,3497.7 522.635,3490.46C534.688,3479.86 549.464,3474.38 564.409,3469.4C574.094,3466.18 583.932,3463.41 593.579,3460.08C603.125,3456.78 611.648,3451.71 618.54,3444.13C625.236,3436.76 632.002,3429.46 638.809,3422.19C640.507,3420.38 642.432,3418.77 644.338,3417.17C648.924,3413.32 653.348,3409.22 658.233,3405.79C663.514,3402.08 668.979,3398.43 674.834,3395.8C688.255,3389.76 702.183,3385.21 717.056,3384.27C726.006,3383.71 734.947,3382.57 743.894,3382.55C748.763,3382.54 753.647,3384.29 758.501,3385.35C762.791,3386.29 767.048,3387.37 772.648,3388.71C770.47,3389.96 769.388,3391.1 768.247,3391.16C755.181,3391.87 745.2,3393.88 734.73,3392.63C734.73,3392.63 718.815,3390.74 702.712,3393.21C685.167,3395.9 672.933,3404.38 662.082,3412.87C645.152,3426.11 628.646,3439.94 615.939,3457.51C610.252,3465.37 601.515,3468.88 594.251,3474.46C583.823,3482.48 571.94,3487.45 559.305,3491.06C550.689,3493.52 542.167,3496.62 534.056,3500.41C529.956,3502.32 526.675,3506.2 523.352,3509.52C517.018,3515.85 510.967,3522.46 504.705,3528.86C502.169,3531.45 502.687,3533.72 504.992,3535.95C507.218,3538.11 509.877,3537.99 512.297,3535.68C512.831,3535.17 513.336,3534.58 513.663,3533.92C521.151,3518.89 534.271,3511.04 549.213,3504.93C566.928,3497.69 585.319,3492.08 601.514,3481.14C611.83,3474.17 620.248,3465.59 628.518,3456.6C634.242,3450.38 639.771,3443.89 646.092,3438.32C658.633,3427.26 671.591,3416.66 686.493,3408.78C687.299,3408.35 688.18,3408.07 689.8,3408.75C687.444,3410.76 685.092,3412.78 682.73,3414.78C673.221,3422.86 663.67,3430.88 654.204,3439.01C638.059,3452.87 623.944,3468.68 610.015,3484.7C599.833,3496.42 588.357,3506.98 575.439,3515.52C567.856,3520.53 558.936,3523.62 550.429,3527.11C537.278,3532.51 523.874,3537.31 510.771,3542.82C506.006,3544.82 501.761,3548.09 497.347,3550.89C494.995,3552.38 493.527,3555.03 495.036,3557.25C496.548,3559.47 499.283,3561.69 501.81,3562.17C504.401,3562.65 508.637,3562.05 508.908,3558.29C509.311,3552.71 513.242,3551.67 517.172,3549.99C525.859,3546.3 534.453,3542.38 543.117,3538.64C545.171,3537.75 547.394,3537.25 549.479,3536.43C557.58,3533.21 565.771,3530.19 573.686,3526.57C576.989,3525.06 579.7,3522.24 582.649,3519.97C596.351,3509.45 608.717,3497.57 620.024,3484.47C638.66,3462.87 659.432,3443.46 682.295,3426.37C690.266,3420.41 698.524,3414.82 706.796,3409.28C712.256,3405.63 718.189,3403.31 725.021,3403.4C729.371,3403.46 733.733,3402.63 738.09,3402.2C738.247,3402.73 738.403,3403.26 738.56,3403.79C736.776,3404.49 734.283,3405.48 731.335,3406.74C709.39,3416.13 693.822,3426.18 689.741,3429.71C676.732,3440.98 663.916,3452.48 651.353,3464.24C647.208,3468.12 643.887,3472.96 640.579,3477.64C631.359,3490.68 622.637,3504.08 613.174,3516.93C601.329,3533.02 588.865,3548.61 572.896,3561.03C563.95,3567.98 553.514,3571.18 542.888,3573.97C540.973,3574.48 538.643,3573.4 537.694,3573.25C532.76,3575.06 528.744,3576.54 524.728,3578.01C522.302,3579.54 521.338,3582.02 523.427,3585.08C526.663,3589.81 531.115,3588.19 536.769,3586.48C535.313,3588.85 534.906,3589.92 534.166,3590.66C526.045,3598.73 517.599,3606.5 509.778,3614.85C498.008,3627.42 486.69,3640.4 475.133,3653.17C458.464,3671.58 438.381,3685.19 415.869,3695.46C403.385,3701.16 393.104,3709.66 384.794,3720.64C364.016,3748.1 342.368,3774.83 318.659,3799.85C316.953,3801.65 315.58,3803.77 314.064,3805.75C309.968,3811.09 307.412,3812.97 300.896,3814.97C305.167,3807.93 308.51,3801.03 313.1,3795.1C325.325,3779.31 333.092,3761.19 341.164,3743.22C348.419,3727.07 355.432,3710.8 362.248,3694.46C364.736,3688.5 366.584,3682.23 368.317,3675.99C372.052,3662.53 375.389,3648.96 379.176,3635.51C380.455,3630.97 382.998,3626.79 384.272,3622.25C388.313,3607.86 392.102,3593.39 395.849,3578.92C399.924,3563.18 405.112,3547.88 412.059,3533.13C425.319,3504.96 442.388,3479.22 460.842,3454.28C472.273,3438.83 483.5,3423.21 494.327,3407.34C501.209,3397.25 507.064,3386.46 513.614,3376.13C519.498,3366.86 525.658,3357.76 531.775,3348.63C542.476,3332.67 553.319,3316.8 563.946,3300.79C571.398,3289.56 577.991,3277.71 586.049,3266.94C596.146,3253.46 603.015,3238.22 611.256,3223.75C617.537,3212.71 624.296,3201.61 628.226,3189.67C632.98,3175.24 640.354,3162.31 647.334,3149.14C656.956,3130.98 669.36,3114.67 683.132,3099.42C684.463,3097.95 685.638,3096.32 686.793,3094.7C696.96,3080.44 708.171,3067.09 721.104,3055.23C721.835,3054.55 722.465,3053.77 723.125,3053.02C736.328,3038.08 749.726,3023.31 762.672,3008.15C776.277,2992.22 789.649,2976.08 802.741,2959.73C812.08,2948.07 820.744,2935.87 829.791,2923.97C837.492,2913.84 845.786,2904.12 852.966,2893.64C863.684,2878 874.584,2862.35 883.666,2845.75C891.883,2830.73 897.749,2814.42 904.698,2798.71C905.804,2796.2 906.98,2793.7 908.419,2791.38C916.05,2779.08 923.781,2766.84 931.458,2754.57C932.517,2752.88 933.678,2751.21 934.44,2749.39C942.295,2730.57 949.625,2715.25 953.125,2703.76C965.104,2664.45 971.094,2644.8 972.842,2624.74C973.168,2620.99 973.431,2618.84 975.811,2583.73C976.166,2578.5 976.539,2573.27 976.835,2568.04C976.835,2568.04 977.442,2557.29 977.769,2547.15C978.656,2519.62 976.625,2508.65 978.286,2481.41C978.463,2478.5 977.797,2472.61 979.854,2465.41C981.973,2457.98 985.426,2453.4 988.06,2449.33C991.978,2443.26 996.908,2433.96 1000.48,2420.43C1001.04,2420.53 1001.59,2420.62 1002.15,2420.72C1002.14,2425.57 1002.25,2430.42 1002.11,2435.27C1001.67,2449.98 1000.99,2464.68 1000.68,2479.38C1000.36,2494.57 1000.08,2509.77 1000.33,2524.96C1000.51,2535.67 1001.99,2546.35 1002.24,2557.05C1002.75,2578.82 1005.46,2600.36 1009.16,2621.75C1010.93,2632.03 1014.08,2642.12 1017.11,2652.14C1021.58,2666.94 1026.8,2681.52 1031.14,2696.35C1039.47,2724.83 1054.24,2750.46 1066.63,2777.11C1076.23,2797.76 1090.11,2815.97 1102.54,2834.97C1108.53,2844.15 1114.59,2853.33 1121.34,2861.95C1133.55,2877.54 1148.81,2890.1 1163.74,2902.95C1173.19,2911.09 1182.51,2919.27 1190.03,2929.48C1194.4,2935.41 1200.59,2940.05 1206.11,2945.1C1211.81,2950.3 1216.97,2955.76 1221.65,2962.07C1226.88,2969.11 1234.39,2974.65 1241.51,2980.04C1252.46,2988.31 1264.07,2995.71 1275.13,3003.84C1283.54,3010.03 1291.54,3016.79 1299.72,3023.3C1301.67,3024.85 1303.63,3026.39 1305.54,3027.98C1317.58,3038.04 1330.05,3047.65 1341.45,3058.39C1347.34,3063.94 1351.98,3071.14 1356,3078.26C1363.09,3090.83 1370.28,3103.36 1374.8,3117.29C1377.79,3126.49 1381.78,3135.57 1386.75,3143.84C1391.47,3151.7 1397.53,3158.95 1403.95,3165.53C1415.21,3177.09 1423.96,3190.46 1432.89,3203.67C1444.49,3220.83 1455.5,3238.38 1466.46,3255.96C1470,3261.63 1473.12,3267.71 1475.47,3273.96C1480.74,3287.95 1485.5,3302.13 1490.25,3316.31C1492.36,3322.59 1493.94,3329.05 1496.03,3336.36C1493.79,3335.71 1492.15,3335.5 1490.79,3334.79C1479.6,3328.95 1467.85,3324.97 1455.24,3323.68C1453.01,3323.45 1450.73,3323.15 1448.62,3322.43C1430.78,3316.36 1413.32,3318.18 1395.84,3324.25C1390.51,3326.09 1384.67,3326.46 1378.79,3327.55C1373.36,3320.78 1369.46,3313.58 1369.14,3304.42C1370.61,3304.09 1371.77,3303.67 1372.95,3303.59C1380.98,3303.06 1384.84,3297.8 1386.8,3290.92C1388.71,3284.21 1390.3,3277.38 1391.44,3270.5C1392.27,3265.53 1394.39,3261.64 1397.99,3258.28C1399.81,3256.59 1401.26,3254.5 1403.02,3252.73C1405.79,3249.94 1406.51,3246.39 1405.43,3243.01C1403.79,3237.85 1402.12,3232.41 1399.1,3228.03C1387.04,3210.57 1374.75,3193.26 1361.96,3176.34C1353.73,3165.45 1343.17,3156.11 1330.38,3151.84C1315.17,3146.76 1299.24,3142.75 1282.84,3144.82C1272.02,3125.77 1260.96,3107.04 1247.45,3090.14C1230.8,3069.3 1213.04,3049.33 1195.35,3029.35C1174.77,3006.11 1155.56,2981.92 1140.44,2954.7C1134.27,2943.59 1128.08,2932.47 1122.48,2921.06C1118.98,2913.91 1116.94,2906.06 1113.59,2898.83C1109.09,2889.12 1103.87,2879.74 1099.12,2870.13C1096.46,2864.77 1094.22,2859.2 1091.62,2853.81C1083.3,2836.49 1075.58,2819 1069.86,2800.54C1065.22,2785.56 1057.78,2771.71 1047.77,2759.32C1043.89,2754.51 1040.88,2748.93 1037.89,2743.47C1030.94,2730.77 1024.16,2717.98 1017.5,2705.14C1015.9,2702.06 1015.06,2698.61 1013.82,2695.35C1013.2,2693.72 1012.69,2691.99 1011.76,2690.54C1008.97,2686.2 1004.44,2685.84 1001.48,2690.05C999.863,2692.36 998.717,2695.35 998.412,2698.15C997.984,2702.07 998.566,2706.1 998.667,2710.09C999.296,2734.77 1000.35,2759.46 1000.39,2784.15C1000.43,2804.32 998.625,2824.49 998.804,2844.66C999.047,2871.85 1000.44,2899.03 1004.25,2926C1006.52,2942.03 1008.74,2958.04 1014.03,2973.53C1020.05,2991.19 1028.93,3007.3 1038.49,3023.13C1049.63,3041.58 1063.08,3058.27 1077.79,3073.97C1083.57,3080.14 1088.97,3086.73 1095.21,3092.39C1110.16,3105.96 1125.35,3119.27 1140.77,3132.3C1145.82,3136.57 1151.88,3139.66 1157.73,3143.45C1156.23,3145.58 1154.4,3144.48 1152.7,3143.72C1140.37,3138.22 1128.62,3131.83 1117.61,3123.87C1110.27,3118.56 1104.05,3112.25 1097.7,3105.98C1089.55,3097.95 1081.57,3089.73 1073.51,3081.6C1072.63,3080.72 1071.61,3079.96 1070.81,3079.01C1063.31,3070.05 1055.25,3061.47 1048.51,3051.96C1040.45,3040.61 1033.91,3028.19 1026,3016.73C1017.95,3005.09 1014.47,2991.35 1007.5,2979.27C1007.38,2979.06 1007.33,2978.8 1007.21,2978.58C1005.82,2976.21 1004.36,2972.96 1001.19,2974.62C999.757,2975.37 998.789,2979.05 999.238,2981.03C1001.39,2990.52 1003.77,2999.99 1006.68,3009.28C1012.87,3029.03 1020.03,3048.38 1030.04,3066.65C1036.11,3077.75 1040.63,3089.7 1046.54,3100.9C1053.52,3114.14 1061.02,3127.11 1068.69,3139.97C1077.89,3155.39 1087.06,3170.86 1097.08,3185.76C1104.17,3196.3 1112.09,3206.41 1120.69,3215.75C1126,3221.52 1133.3,3225.45 1139.68,3230.23C1143.47,3233.06 1147.02,3236.25 1151.03,3238.73C1157.33,3242.62 1163.67,3246.63 1170.44,3249.56C1187.35,3256.89 1204,3265 1222.27,3268.72C1224.19,3269.12 1226.2,3269.76 1227.84,3270.8C1237.31,3276.79 1246.98,3282.52 1256.01,3289.13C1266.45,3296.78 1276.47,3305.04 1286.35,3313.42C1295.44,3321.13 1305.23,3328.2 1311.12,3339.12C1314.12,3344.67 1314.03,3345.99 1308.9,3349.46C1295.45,3358.53 1282.06,3367.71 1268.66,3376.85C1267.01,3377.97 1265.54,3379.72 1263.73,3380.21C1253.04,3383.05 1247.3,3392.59 1238.85,3398.46C1229.93,3404.66 1224.38,3414.15 1219.32,3423.72C1217.13,3427.86 1216.09,3430.07 1213.57,3430.82C1209.66,3431.97 1203.91,3428.83 1188.42,3408.85ZM1031.91,3220.18C1034.58,3232.78 1035.86,3237.66 1036.95,3241.99C1040.41,3255.82 1044.76,3269.4 1052.37,3281.49C1056.15,3287.49 1061.22,3292.95 1066.59,3297.64C1088.32,3316.6 1103.21,3340.38 1114.75,3366.28C1120.5,3379.21 1124.2,3392.91 1121.84,3407.72C1120.17,3418.27 1120.04,3429.09 1119.6,3439.8C1119.27,3447.75 1119.72,3455.73 1119.5,3463.69C1119.33,3469.92 1118.44,3476.12 1118.31,3482.34C1118.19,3488.04 1114.87,3490.79 1110.17,3492.74C1083.27,3503.87 1070.98,3501.8 1070.98,3501.8C1052.69,3491.28 1040.58,3479.44 1033.32,3471.19C1025.24,3462.03 1017.94,3453.56 1013.88,3440.16C1010.63,3429.47 1009.83,3420.86 1011.69,3409.24C1014.06,3394.47 1017.01,3379.76 1020.44,3365.2C1022.25,3357.5 1026.05,3350.29 1028.16,3342.63C1031.51,3330.41 1034.24,3318 1037.15,3305.66C1037.96,3302.26 1038.43,3298.78 1039.16,3295.37C1042.06,3281.82 1040.76,3268.84 1035.72,3255.8C1029.18,3238.83 1024.29,3221.29 1020.34,3203.49C1017.02,3188.48 1012.33,3173.73 1009.75,3158.6C1007.75,3146.9 1005.38,3135.23 1004.12,3123.31C1002.99,3112.62 1003.57,3101.97 1002.46,3091.35C1001.09,3078.25 1000.51,3065.06 999.635,3051.9C999.576,3051.01 999.899,3050.1 1000.26,3047.83C1005.43,3053.76 1006.69,3059.75 1006.68,3065.93C1006.67,3077.93 1007.52,3089.73 1010.3,3101.5C1012.35,3110.2 1012.67,3119.29 1014.03,3128.17C1015.23,3136.02 1016.65,3141.6 1017.37,3144.92C1023.56,3173.31 1024.03,3182.94 1031.91,3220.18ZM977.951,3183.63C978.275,3175.97 978.439,3166.15 980.923,3159.33C983.105,3153.33 983.364,3146.62 984.361,3140.21C985.698,3131.62 986.903,3123 988.203,3114.39C988.894,3109.82 989.665,3105.26 990.4,3100.7C991.005,3100.73 991.61,3100.76 992.215,3100.79C992.925,3106.05 993.791,3111.3 994.317,3116.57C996.374,3137.22 999.859,3157.5 1006.35,3177.34C1010.44,3189.82 1012.41,3202.98 1015.61,3215.76C1018.7,3228.1 1021.32,3240.65 1025.65,3252.56C1030.42,3265.64 1031.86,3278.71 1029.84,3292.24C1028.44,3301.61 1026.42,3310.89 1024.59,3320.19C1024.32,3321.57 1023.55,3322.85 1023.01,3324.17C1022.48,3324.2 1021.96,3324.23 1021.43,3324.26C1020.54,3322.26 1019.52,3320.32 1018.8,3318.26C1015.74,3309.59 1012.84,3300.87 1009.75,3292.21C1005.91,3281.42 1001.86,3270.7 998.029,3259.91C993.606,3247.44 991.227,3240.7 988.388,3231.58C981.072,3208.08 977.425,3196.08 977.951,3183.63ZM947.321,3529.56C941.899,3526.29 941.939,3520.26 939.256,3515.95C936.241,3511.11 933.239,3506.23 930.716,3501.12C928.309,3496.25 926.913,3490.87 924.356,3486.09C921.865,3481.44 918.241,3477.36 918.3,3470.19C923.451,3474.66 925.452,3479.27 927.497,3483.98C932.012,3494.4 936.732,3504.73 941.591,3515C942.509,3516.93 944.403,3518.44 945.95,3520.04C948.493,3522.68 948.854,3525.6 947.321,3529.56ZM932.717,3476.59C931.621,3474.22 930.569,3471.82 929.137,3468.64C945.484,3475.4 954.782,3486.39 956.77,3503.21C957.119,3506.16 957.974,3509.07 958.707,3511.96C961.924,3524.7 962.278,3535.54 959.47,3547.83C959.073,3543.95 958.975,3541.29 958.507,3538.69C956.66,3528.46 954.463,3518.72 948.383,3509.53C941.744,3499.49 937.816,3487.65 932.717,3476.59ZM918.479,3325.07C917.194,3311.54 918.736,3306.78 917.869,3301.2C915.587,3286.51 911.793,3285.81 911.283,3276.8C910.616,3265.04 916.728,3259.82 927.566,3237.9C930.184,3232.6 927.622,3237.11 940.169,3208.31C949.323,3187.3 958.556,3166.33 967.744,3145.33C969.824,3140.58 971.851,3135.8 973.902,3131.03C974.414,3131.19 974.924,3131.34 975.436,3131.49C975.354,3133.19 975.543,3134.96 975.15,3136.58C972.216,3148.69 969.049,3160.74 966.212,3172.87C965.078,3177.71 964.771,3182.75 963.78,3187.63C960.167,3205.47 956.944,3223.4 952.618,3241.07C944.986,3272.22 939.508,3303.58 939.83,3335.8C939.894,3342.25 938.717,3348.7 938.396,3355.17C938.038,3362.37 937.934,3369.59 937.842,3376.81C937.678,3389.77 938.158,3402.77 937.331,3415.69C936.585,3427.35 934.471,3438.92 932.907,3450.52C932.712,3451.97 932.19,3453.37 931.525,3455.93C928.786,3454.33 926.177,3453.42 924.408,3451.66C919.246,3446.54 913.07,3444.68 906.027,3444.73C904.366,3444.74 902.701,3444.24 900.38,3443.86C900.746,3441.59 900.912,3439.66 901.38,3437.8C903.945,3427.64 906.961,3417.58 909.099,3407.33C911.646,3395.13 913.54,3382.78 915.572,3370.47C918.052,3355.44 919.935,3340.4 918.479,3325.07ZM1060.36,3581.39C1061.35,3589.78 1061.89,3598.23 1062.59,3606.66C1064.04,3624.06 1063.78,3641.52 1064.23,3658.96C1064.73,3678.17 1063.31,3697.29 1063.25,3716.47C1063.22,3726.14 1062.83,3735.82 1062.68,3745.5C1062.38,3764.39 1062.89,3783.33 1061.61,3802.14C1060.72,3815.2 1064.13,3827.32 1066.17,3839.8C1068.09,3851.59 1069.92,3863.41 1072.16,3875.15C1073.05,3879.77 1074.56,3884.36 1076.42,3888.69C1085.36,3909.55 1094.72,3930.23 1103.54,3951.14C1110.6,3967.88 1117.4,3984.69 1118.35,4003.3C1118.73,4010.71 1120.84,4018.05 1122.48,4025.36C1127.68,4048.49 1132.06,4071.6 1131.74,4095.58C1131.51,4112.74 1133.75,4129.93 1138.07,4146.69C1142.98,4165.77 1147.84,4184.86 1153.12,4203.84C1155.98,4214.13 1159.7,4224.17 1162.91,4234.36C1163.5,4236.21 1163.52,4238.24 1163.8,4240.19C1163.4,4240.37 1163,4240.55 1162.6,4240.73C1159.44,4234.55 1156.17,4228.43 1153.17,4222.17C1147.16,4209.63 1138.36,4199.12 1129.33,4188.74C1111.75,4168.53 1096.2,4146.87 1082.25,4124.01C1077.18,4115.7 1071.23,4107.93 1066.2,4099.59C1060.17,4089.58 1054.73,4079.21 1048.97,4069.03C1038.87,4051.18 1030.27,4032.61 1022.79,4013.53C1018.6,4002.85 1014.62,3992.09 1010.75,3981.29C1004.38,3963.5 994.846,3947.45 984.429,3931.82C971.684,3912.7 958.42,3893.89 946.633,3874.19C936.142,3856.66 926.672,3838.41 920.878,3818.61C916.609,3804.01 912.107,3789.47 908.524,3774.7C906.182,3765.05 905.192,3755.05 903.855,3745.18C903.614,3743.39 904.678,3741.45 905.057,3739.56C905.826,3735.73 907.308,3731.86 907.149,3728.06C906.243,3706.41 904.979,3684.77 903.743,3663.13C903.458,3658.16 902.59,3653.21 902.364,3648.23C901.833,3636.56 901.7,3624.87 901.077,3613.2C900.585,3604 900.456,3594.66 898.652,3585.68C892.823,3556.67 894.317,3541.51 894.022,3537.43C892.466,3515.93 891.557,3479.16 895.083,3478.75C899.659,3478.22 910.238,3539.06 917.833,3582.72C918.943,3589.1 920.168,3594.88 920.77,3602.66C922.465,3624.6 920.052,3646.56 920.659,3668.47C921.307,3691.86 922.182,3715.39 929.57,3738.01C931.108,3742.72 931.77,3747.73 933.445,3752.38C935.016,3756.74 937.396,3760.81 939.431,3765.03C945.903,3763.47 945.859,3762.73 945.469,3756.91C944.925,3748.82 939.289,3742.95 937.318,3735.58C936.693,3733.24 936.134,3730.88 935.682,3728.51C935.263,3726.31 935.48,3723.87 934.63,3721.88C931.134,3713.66 930.536,3704.93 930.075,3696.26C929.442,3684.36 929.335,3672.42 929.217,3660.5C929.123,3651.04 929.474,3641.58 929.405,3632.12C929.319,3620.21 929.008,3608.3 929.262,3596.22C933.983,3603.43 937.59,3611.13 940.076,3619.33C942.262,3626.55 942.48,3633.88 942.198,3641.45C941.754,3653.38 942.462,3665.36 942.796,3677.31C942.934,3682.27 943.275,3687.23 943.695,3692.17C943.963,3695.34 944.952,3698.25 948.924,3698.17C951.824,3698.11 955.081,3694.23 955.075,3690.81C955.071,3688.59 955.207,3685.98 954.154,3684.22C951.525,3679.84 951.594,3675.44 951.928,3670.56C952.572,3661.16 953.073,3651.66 952.436,3642.28C951.781,3632.62 950.696,3622.77 947.952,3613.56C944.684,3602.58 941.522,3599.57 936.312,3588.65C926.728,3568.58 930.563,3564.71 918.842,3527.35C913.28,3509.62 909.936,3502.59 911.671,3501.61C915.654,3499.36 939.1,3533.13 942.337,3538.79C943.847,3541.43 945.568,3544.53 948.672,3548.78C951.673,3552.89 953.384,3554.31 956.055,3559.32C964.249,3574.7 967.168,3589.17 968.356,3598.97C970.545,3610.85 968.876,3622.44 967.057,3634.15C963.468,3657.26 961.051,3680.48 963.958,3703.93C965.094,3713.09 965.396,3722.36 966.702,3731.48C967.686,3738.36 969.468,3745.15 971.296,3751.87C972.011,3754.5 972.269,3756.45 970.406,3758.74C967.128,3762.77 964.089,3767.02 961.217,3771.35C960.396,3772.59 960.495,3774.44 960.171,3776.01C961.979,3776.18 964.031,3776.98 965.545,3776.39C968.758,3775.15 971.69,3773.18 975.003,3771.36C976.806,3773.45 978.392,3775.7 980.42,3777.44C981.312,3778.2 983.237,3778.35 984.44,3777.97C985.287,3777.7 986.193,3776.1 986.229,3775.06C986.356,3771.36 986.779,3767.46 985.834,3763.98C984.969,3760.8 982.472,3758.06 980.707,3755.12C979.217,3752.63 977.137,3750.31 976.393,3747.62C974.868,3742.1 973.754,3736.43 973.018,3730.75C969.542,3703.97 968.557,3677.1 971.169,3650.17C971.542,3646.33 972.82,3642.57 974.373,3638.81C977.686,3643.35 978.767,3648.36 979.584,3653.39C984.267,3682.21 989.537,3710.89 998.231,3738.83C999.565,3743.11 1000.72,3747.46 1002.17,3751.7C1002.7,3753.25 1003.87,3754.59 1004.71,3755.97C1011.69,3752.99 1014.91,3743.45 1010.33,3738.07C1002.8,3729.22 1001.45,3718.4 999.073,3707.81C998.964,3707.32 999.079,3706.74 998.847,3706.34C996.004,3701.47 996.357,3695.86 995.063,3690.68C992.148,3679.01 991.592,3667.07 989.66,3655.31C989.26,3652.88 988.46,3650.49 987.648,3648.15C984.509,3639.11 983.092,3629.9 982.966,3620.27C982.853,3611.59 982.354,3602.6 979.944,3594.36C976.097,3581.2 976.5,3567.67 974.376,3554.4C974.337,3554.16 974.422,3553.88 974.342,3553.66C968.997,3538.91 971.887,3523.13 968.614,3508.14C967.716,3504.02 966.112,3500.06 964.705,3496.07C963.712,3493.25 962.072,3490.6 961.479,3487.72C960.081,3480.95 956.237,3476 950.963,3471.87C947.23,3468.95 943.604,3465.9 939.864,3462.99C937.039,3460.79 936.143,3458.39 936.831,3454.58C939.887,3437.64 941.512,3420.49 942.221,3403.31C942.776,3389.86 942.074,3376.35 942.545,3362.89C943.322,3340.7 943.878,3318.45 945.919,3296.36C947.222,3282.25 950.722,3268.31 953.795,3254.41C957.405,3238.09 961.592,3221.9 965.599,3205.67C966.245,3203.05 967.256,3200.53 968.533,3196.63C969.976,3199.19 971.108,3200.48 971.474,3201.95C978.493,3230.32 986.523,3258.36 997.193,3285.62C1001.73,3297.22 1005.75,3309.05 1009.42,3320.96C1011.91,3329.03 1013.6,3337.36 1015.18,3345.67C1015.71,3348.47 1015.18,3351.64 1014.46,3354.47C1010.19,3371.19 1006.33,3386.91 1004.7,3392.15C996.805,3417.52 1005.88,3442.67 1007.92,3448.34C1009.89,3453.8 1019.57,3469 1030.03,3485.66C1032.91,3490.26 1036.75,3494.36 1040.61,3498.23C1046.56,3504.21 1049.18,3511.35 1050.34,3519.56C1051.63,3528.66 1054.11,3537.59 1055.58,3546.67C1057.44,3558.2 1058.98,3569.79 1060.36,3581.39ZM1155.86,4248.14C1147.66,4238.95 1137.35,4232.18 1128.31,4224C1112.07,4209.31 1095.53,4194.75 1084.46,4175.32C1077.35,4162.84 1067.55,4152.42 1057.81,4142.07C1044.83,4128.27 1029.92,4116.6 1014.37,4105.82C1003.67,4098.4 995.618,4088.83 989.596,4077.42C984.131,4067.06 978.725,4056.67 973.174,4046.36C971.77,4043.75 969.898,4041.39 968.262,4038.91C966.618,4036.41 964.65,4034.05 963.432,4031.36C958.552,4020.56 950.384,4012.81 941.223,4005.66C931.224,3997.85 921.86,3989.24 911.958,3981.31C901.367,3972.82 892.667,3962.53 883.669,3952.53C878.84,3947.17 874.574,3941.29 870.082,3935.63C858.597,3921.14 847.923,3906.07 839.25,3889.74C834.606,3880.99 830.95,3871.72 826.773,3862.72C821.634,3851.64 816.052,3840.76 811.388,3829.49C809.047,3823.83 808.33,3817.51 806.856,3811.49C805.857,3807.41 804.637,3803.37 803.851,3799.25C803.027,3794.92 802.511,3790.53 802.032,3786.15C801.603,3782.22 801.604,3778.24 801.063,3774.32C800.078,3767.2 798.834,3760.12 797.688,3753.02C797.49,3751.79 797.385,3750.52 796.999,3749.35C793.618,3739.09 794.872,3729.23 799.337,3719.58C800.057,3718.02 800.277,3716.23 800.743,3714.55C801.998,3710.04 802.644,3705.23 804.655,3701.08C808.317,3693.53 812.791,3686.38 817.623,3677.82C820.149,3684.37 819.131,3689.71 818.952,3694.93C818.629,3704.38 818.074,3713.82 817.794,3723.27C817.659,3727.82 819.232,3729.78 822.679,3730.2C825.64,3730.56 829.067,3728.12 829.235,3724.38C829.396,3720.79 828.865,3716.83 827.375,3713.61C826.028,3710.7 825.367,3708.1 825.822,3705.06C827.494,3693.87 826.793,3682.69 825.967,3671.46C825.474,3664.76 826.961,3658.59 830.483,3652.29C836.645,3641.28 842.507,3629.9 842.622,3616.54C842.724,3604.58 843.602,3592.62 844.286,3580.67C844.778,3572.07 846.861,3563.98 851.74,3556.64C854.342,3552.73 856.119,3548.27 858.427,3544.15C859.232,3542.71 860.513,3541.54 861.633,3540.18C864.604,3542.17 863.003,3544.47 862.792,3546.47C860.509,3568.07 858.125,3589.66 855.893,3611.26C855.613,3613.96 855.581,3616.86 856.228,3619.46C859.038,3630.79 857.261,3641.85 854.418,3652.79C852.101,3661.71 849.639,3670.63 846.551,3679.31C844.417,3685.31 841.108,3690.89 837.75,3697.84C838.854,3702.93 840.554,3704.96 844.644,3704.88C848.792,3704.8 852.625,3701.27 852.29,3696.4C851.859,3690.13 854.451,3684.71 855.774,3678.95C858.674,3666.33 862.471,3653.88 864.705,3641.15C865.835,3634.71 864.302,3627.82 864.089,3621.13C863.923,3615.93 863.491,3610.68 863.954,3605.52C865.136,3592.35 866.713,3579.22 868.221,3566.08C868.64,3562.43 869.366,3558.81 870.947,3555.14C871.12,3558.78 871.203,3562.43 871.484,3566.06C872.349,3577.25 873.192,3588.44 874.227,3599.6C875.697,3615.49 877.955,3631.34 878.715,3647.26C879.449,3662.61 875.46,3677.47 870.984,3692.07C869.308,3697.54 867.063,3702.85 864.822,3708.12C863.096,3712.19 861.854,3716.71 856.967,3718.52C856.187,3718.81 855.34,3719.9 855.187,3720.74C854.126,3726.57 853.242,3732.42 852.317,3738.17C860.438,3742.06 863.394,3741.41 864.761,3733.38C867.021,3720.11 874.526,3708.91 878.063,3696.32C883.792,3675.91 888.951,3655.41 885.444,3633.67C882.23,3613.73 880.177,3593.6 878.052,3573.5C877.402,3567.36 878.168,3561.06 878.351,3554.84C878.628,3545.35 878.719,3535.86 879.355,3526.4C879.797,3519.84 881.378,3513.44 885.554,3507.58C885.828,3510.73 886.158,3513.87 886.366,3517.02C887.546,3534.95 887.829,3552.99 890.106,3570.77C892.301,3587.9 893.523,3605.02 894.018,3622.23C894.375,3634.68 894.134,3647.15 894.812,3659.58C895.788,3677.49 897.503,3695.36 898.578,3713.26C898.89,3718.44 898.332,3723.73 897.674,3728.9C897.415,3730.94 895.925,3732.89 894.769,3734.74C892.13,3738.96 889.611,3743.17 890.211,3748.89C900.103,3751.71 899.998,3751.72 901.767,3761.9C907.183,3793.04 916.594,3822.77 930.527,3851.31C941.78,3874.35 956.389,3895.09 970.359,3916.36C981.028,3932.6 992.012,3948.72 999.031,3967.1C1002.22,3975.47 1006.75,3983.32 1010.1,3991.63C1013.74,4000.62 1016.14,4010.13 1020.08,4018.97C1031.54,4044.75 1043.76,4070.17 1058.36,4094.36C1066.86,4108.44 1075.74,4122.3 1084.4,4136.28C1086.1,4139.02 1087.65,4141.85 1089.16,4144.7C1097.46,4160.36 1110.28,4172.45 1121.58,4185.73C1125.94,4190.86 1130.68,4195.69 1134.86,4200.97C1139.17,4206.42 1143.05,4212.05 1145.63,4218.79C1148.82,4227.12 1153.75,4234.77 1157.79,4242.78C1158.86,4244.91 1159.43,4247.28 1160.81,4251.17C1158.15,4249.57 1156.72,4249.11 1155.86,4248.14ZM824.105,3601.77C826.827,3596.27 830.483,3591.24 833.918,3585.73C837.369,3591.51 837.487,3597.26 835.152,3617.27C833.883,3628.14 830.827,3638.33 824.185,3648.78C823.283,3645.87 822.471,3644.33 822.366,3642.74C821.731,3633.09 820.886,3623.44 820.909,3613.79C820.918,3609.75 822.291,3605.43 824.105,3601.77ZM856.7,3500.2C859.934,3486.7 864.035,3473.4 867.665,3460.34C875.815,3458.84 877.852,3460.44 877.121,3467.32C875.346,3484.01 872.522,3500.49 864.843,3515.65C860.258,3524.7 855.113,3533.47 850.22,3542.36C849.552,3542.09 848.885,3541.82 848.217,3541.55C851.009,3527.76 853.426,3513.88 856.7,3500.2ZM850.547,3478.74C851.133,3478.79 851.719,3478.85 852.304,3478.9C852.197,3481.16 852.334,3483.46 851.946,3485.67C847.683,3509.95 843.542,3534.26 838.847,3558.46C837.887,3563.41 835.177,3568.19 832.526,3572.59C829.997,3576.8 826.492,3580.42 823.416,3584.3C822.827,3584.17 822.237,3584.04 821.647,3583.92C824.055,3546.88 838.241,3513.07 850.547,3478.74ZM829.85,3480.1C827.296,3484.54 827.352,3484.57 819.187,3486.25C827.822,3471.63 835.448,3458.31 847.1,3446.71C848.828,3450.59 847.74,3453.04 845.82,3454.96C838.626,3462.18 834.799,3471.49 829.85,3480.1ZM790.535,3511.77C779.56,3524.03 769.481,3537.08 758.839,3549.64C755.816,3553.21 752.229,3556.3 747.75,3560.75C746.78,3553.01 750.094,3547.98 752.175,3542.95C756.459,3532.6 761.081,3522.25 766.888,3512.71C774.39,3500.39 782.914,3488.65 791.524,3477.05C797.292,3469.27 803.771,3462 810.315,3454.85C815.488,3449.2 821.241,3444.08 826.746,3438.74C827.101,3438.39 827.522,3438.1 827.954,3437.85C830.766,3436.26 833.917,3433.81 836.794,3436.64C839.421,3439.23 837.109,3442.29 835.623,3444.82C821.978,3468.06 808.687,3491.5 790.535,3511.77ZM730.769,3578.56C730.304,3579.71 729.953,3581.08 729.104,3581.87C724.842,3585.87 720.431,3589.72 715.294,3594.31C714.823,3591.87 714.224,3590.66 714.457,3589.64C715.46,3585.27 716.343,3580.82 717.932,3576.65C723.256,3562.67 728.231,3548.5 734.547,3534.97C740.536,3522.14 747.438,3509.63 755.089,3497.72C760.418,3489.42 767.698,3482.38 774.089,3474.76C776.163,3472.29 778.296,3469.86 780.203,3467.26C789.934,3454 799.669,3440.75 809.259,3427.39C814.332,3420.32 818.074,3420.08 825.167,3427.35C822.228,3430.26 819.091,3433.02 816.354,3436.13C807.795,3445.85 798.903,3455.34 791.042,3465.61C781.353,3478.27 772.07,3491.31 763.569,3504.79C757.744,3514.02 753.104,3524.09 748.736,3534.14C742.372,3548.78 736.734,3563.74 730.769,3578.56ZM784.114,3432.29C769.324,3445 754.091,3457.07 737.628,3467.61C732.457,3470.93 728.732,3476.46 723.636,3479.94C712.347,3487.64 703.388,3497.73 694.391,3507.7C687.745,3515.05 682.291,3523.5 676.459,3531.58C673.996,3534.99 671.927,3538.68 669.679,3542.25C669.313,3542.15 668.948,3542.05 668.582,3541.95C669.287,3537.57 669.619,3533.1 670.778,3528.84C672.876,3521.14 675.54,3513.6 677.831,3505.96C679.539,3500.26 682.821,3495.9 687.363,3492C698.719,3482.25 709.54,3471.88 720.937,3462.19C728.306,3455.92 735.614,3449.5 744.902,3445.78C749.683,3443.87 753.972,3440.61 758.292,3437.68C770.878,3429.14 783.369,3420.46 795.891,3411.83C796.711,3411.26 797.428,3410.53 798.275,3410.02C800.7,3408.55 802.594,3409.59 804.134,3411.51C805.738,3413.51 804.956,3415.31 803.242,3416.72C796.888,3421.94 790.347,3426.93 784.114,3432.29ZM782.107,3381.5C772.799,3378.86 763.401,3376.54 754.063,3374C746.139,3371.85 738.202,3372.64 730.283,3373.82C719.427,3375.42 708.599,3377.22 697.748,3378.86C696.62,3379.03 695.414,3378.69 693.591,3378.52C694.2,3376.44 694.519,3374.82 695.14,3373.31C702.096,3356.51 708.989,3339.68 716.125,3322.95C721.794,3309.66 727.792,3296.51 733.612,3283.29C735.319,3279.41 736.952,3275.5 738.556,3271.58C739.749,3268.66 741.541,3266.52 744.691,3265.49C749.667,3263.86 754.628,3262.15 759.474,3260.17C763.377,3258.58 767.279,3256.84 770.865,3254.65C778.516,3249.97 786.171,3245.25 793.409,3239.98C797.351,3237.1 800.491,3233.11 803.911,3229.54C812.182,3220.91 820.447,3212.28 828.635,3203.57C835.282,3196.51 842.004,3189.5 848.331,3182.15C852.705,3177.07 856.455,3171.46 860.499,3166.1C863.651,3161.92 866.773,3157.71 870.004,3153.6C875.323,3146.82 876.578,3142.29 882.356,3130.78C882.356,3130.78 887.692,3120.14 894.199,3108.22C895.928,3105.06 901.47,3095.01 911.752,3079.16C937.719,3039.1 946.794,3034.65 958.07,3013.41C958.07,3013.41 966.228,2999.09 977.813,2979.02C979.349,2976.36 981.343,2973.96 983.126,2971.44C983.807,2971.76 984.488,2972.08 985.168,2972.4C984.937,2983.05 984.095,2993.63 981.97,3004.12C979.988,3013.9 978.627,3023.84 976.099,3033.47C971.604,3050.59 966.793,3067.65 961.447,3084.52C955.571,3103.06 951.148,3122.11 942.638,3139.77C938.74,3147.85 934.956,3156 931.083,3164.1C925.593,3175.58 920.054,3187.04 914.574,3198.53C913.715,3200.33 912.867,3202.17 912.337,3204.08C903.631,3235.55 884.01,3259.45 858.92,3278.99C829.519,3301.88 809.035,3331.06 794.713,3365.01C792.966,3369.16 791.348,3373.36 789.668,3377.53C788.274,3380.99 786.141,3382.64 782.107,3381.5ZM787.105,3403.48C784.362,3411.39 751.319,3434.35 732.219,3441.23C743.184,3431.93 753.033,3423.6 762.856,3415.23C768.325,3410.58 781.614,3404.1 787.105,3403.48ZM713.125,3435.79C714.119,3433.81 714.555,3431.56 715.504,3429.55C716.337,3427.79 717.138,3425.54 718.634,3424.65C725.162,3420.76 731.777,3416.93 738.687,3413.8C742.586,3412.04 747.119,3411.67 751.367,3410.67C751.721,3411.1 752.076,3411.52 752.43,3411.95C751.261,3413.56 750.353,3415.48 748.883,3416.75C734.58,3429.05 720.185,3441.25 705.794,3453.45C705.469,3453.72 704.89,3453.7 703.619,3454.02C707.018,3447.53 710.153,3441.7 713.125,3435.79ZM298.887,3809.94C297.847,3811.55 296.414,3812.9 293.992,3814.03C294.226,3812.58 294.467,3811.12 294.694,3809.67C296.628,3797.28 300.73,3785.55 305.412,3773.98C312.285,3756.98 316.813,3739.52 317.509,3721.01C318.07,3706.08 320.146,3691.22 321.232,3676.3C321.864,3667.62 321.816,3658.89 322.172,3650.18C322.579,3640.21 323.146,3630.25 323.55,3620.29C323.975,3609.84 323.921,3599.36 324.766,3588.95C325.45,3580.51 327.524,3572.2 328.335,3563.77C330.377,3542.57 336.583,3522.29 342.333,3502C347.685,3483.11 355.045,3464.79 361.178,3446.11C365.559,3432.77 371.036,3419.95 377.954,3407.76C381.146,3402.14 384.889,3396.83 388.077,3391.2C397.294,3374.93 407.314,3359.01 415.135,3342.08C420.15,3331.23 425.409,3319.94 425.376,3307.17C425.364,3302.1 427.229,3296.84 429.084,3291.99C432.648,3282.68 436.384,3273.39 440.824,3264.47C449.955,3246.13 461.26,3229.08 472.669,3212.08C480.638,3200.21 489.828,3189.61 499.862,3179.46C506.275,3172.97 510.899,3164.7 516.271,3157.19C521.018,3150.56 525.674,3143.86 530.419,3137.22C532.379,3134.48 533.275,3133.28 535.333,3130.44C545.545,3116.35 550.65,3109.3 552.609,3106.37C562.295,3091.84 558.904,3086.68 568.682,3064.83C574.072,3052.79 579.478,3044.58 584.111,3037.55C600.115,3013.25 607.36,3012.68 632.228,2982.51C635.462,2978.59 643.229,2969.03 655.497,2958.27C655.497,2958.27 659.289,2954.94 663.461,2951.64C706.691,2917.51 769.328,2887.55 769.328,2887.55C793.584,2875.94 803.029,2871.21 821.778,2861.49C825.623,2859.49 827.525,2857.8 830.348,2856.93C842.164,2853.26 851.478,2845.45 860.477,2837.74C869.509,2830.01 877.019,2820.49 885.183,2811.75C889.02,2807.64 892.826,2803.5 897.681,2798.26C897.615,2800.82 897.828,2801.79 897.535,2802.57C890.446,2821.47 883.821,2840.66 871.208,2856.81C867.017,2862.17 864.274,2868.29 860.516,2873.77C849.086,2890.43 837.083,2906.71 825.212,2923.06C819.643,2930.74 814,2938.37 808.152,2945.83C796.311,2960.95 784.78,2976.34 772.245,2990.87C758.397,3006.91 743.358,3021.92 729.223,3037.72C714.088,3054.64 699.081,3071.69 684.632,3089.19C674.967,3100.9 666.235,3113.39 657.331,3125.71C642.923,3145.64 632.494,3167.71 622.417,3190.05C608.466,3220.98 593.19,3251.23 573.744,3279.22C560.641,3298.08 547.861,3317.17 535.293,3336.4C522.452,3356.04 510.351,3376.16 497.359,3395.7C486.021,3412.75 474.039,3429.38 462.084,3446C445.457,3469.13 429.384,3492.65 415.927,3517.75C408.647,3531.34 401.562,3545.05 396.903,3560.02C391.944,3575.95 385.46,3591.38 381.818,3607.78C378.414,3623.1 374.785,3638.42 370.244,3653.44C364.185,3673.48 357.878,3693.51 350.313,3713.01C343.563,3730.41 335.417,3747.33 327.004,3764.01C321.634,3774.66 314.664,3784.5 308.393,3794.69C305.255,3799.79 302.137,3804.91 298.887,3809.94ZM1503.36,3353.86C1505.23,3354.91 1506.46,3357.11 1507.99,3358.78C1507.5,3359.47 1507.02,3360.17 1506.53,3360.86C1467.46,3346.3 1427.2,3337.69 1385.74,3335.68C1385.88,3335.51 1386.12,3334.93 1386.49,3334.81C1395.29,3332.16 1403.96,3328.37 1412.95,3327.3C1421.46,3326.29 1430.42,3327.44 1438.97,3328.92C1448.76,3330.61 1458.36,3333.57 1467.97,3336.23C1480.88,3339.81 1491.84,3347.44 1503.36,3353.86ZM1482.58,3364.57C1473.18,3363.46 1463.78,3362.29 1454.37,3361.25C1451.42,3360.92 1448.39,3361.18 1445.45,3360.74C1437.1,3359.48 1428.8,3357.84 1420.43,3356.66C1404.66,3354.43 1388.81,3352.66 1373.06,3350.23C1364.54,3348.91 1356.16,3346.63 1346.1,3344.43C1351.12,3341.71 1355.26,3340.54 1358.29,3342.3C1364.63,3345.99 1371.46,3346.05 1377.9,3345.22C1396.39,3342.82 1414.25,3346.55 1432.2,3349.48C1443.02,3351.25 1453.82,3353.42 1464.45,3356.11C1470.87,3357.74 1476.94,3360.72 1483.17,3363.09C1482.97,3363.58 1482.78,3364.08 1482.58,3364.57ZM1460.34,3382.44C1464.98,3385.66 1468.91,3389.9 1473.19,3393.64C1475.43,3395.6 1477.8,3397.41 1480.02,3399.39C1481.53,3400.74 1482.87,3402.28 1483.57,3404.36C1463.27,3394.58 1443.44,3383.55 1422.51,3375.36C1401.69,3367.21 1379.75,3361.91 1357.44,3355.09C1374.5,3357.31 1390.67,3359.52 1406.88,3361.47C1419.08,3362.93 1431.01,3365.12 1441.78,3371.48C1447.97,3375.13 1454.45,3378.36 1460.34,3382.44ZM1180.55,3184.3C1179.51,3178.73 1177.8,3173.29 1176.47,3167.77C1176.26,3166.86 1176.45,3165.86 1176.47,3162.88C1180.08,3165.69 1182.76,3167.15 1184.6,3169.32C1199.71,3187.21 1215.01,3204.96 1229.54,3223.32C1236.94,3232.67 1242.91,3243.17 1249.5,3253.17C1252.93,3258.38 1256.25,3263.66 1259.74,3268.83C1268.67,3282.1 1280.73,3290.6 1296.79,3293.02C1314.54,3295.7 1332.25,3298.69 1350.03,3301.16C1357.33,3302.18 1362.54,3304.88 1365.21,3312.26C1367.21,3317.81 1370.31,3322.97 1373.04,3328.54C1369.46,3331.89 1365.25,3332.4 1361.11,3332.94C1351.96,3334.13 1342.79,3335.13 1333.65,3336.35C1325.59,3337.44 1318.91,3335.97 1314.61,3328.1C1312.09,3323.5 1308.3,3320.02 1303.81,3316.96C1298.94,3313.64 1295.16,3308.77 1290.58,3304.96C1272.99,3290.27 1255.48,3275.41 1235.29,3264.27C1231.93,3262.41 1227.8,3261.96 1224.06,3260.75C1216.49,3258.32 1208.94,3255.84 1201.4,3253.32C1198.54,3252.37 1197.18,3250.18 1196.32,3247.34C1190.03,3226.58 1184.51,3205.64 1180.55,3184.3ZM1163.76,3162.82C1168.26,3175.25 1171.67,3187.95 1174.02,3200.97C1175.66,3210.05 1177.9,3219.01 1179.87,3228.03C1181.1,3233.69 1182.34,3239.35 1183.71,3245.66C1182.13,3245.32 1180.83,3245.36 1179.9,3244.79C1169.06,3238.23 1157.09,3233.4 1148.06,3224.03C1146.18,3222.07 1143.91,3220.36 1141.56,3219.01C1129.08,3211.83 1120.78,3200.6 1112.42,3189.38C1098.26,3170.35 1085.04,3150.74 1074.2,3129.57C1071.49,3124.27 1067.71,3119.53 1064.76,3114.34C1061.19,3108.1 1057.89,3101.71 1054.65,3095.3C1049.92,3085.97 1045.24,3076.62 1040.77,3067.17C1038.54,3062.47 1036.82,3057.52 1034.29,3051.27C1045.79,3064.4 1056.26,3076.4 1066.78,3088.36C1068.92,3090.79 1071.21,3093.08 1073.45,3095.42C1080.54,3102.78 1087.35,3110.44 1094.8,3117.41C1108.71,3130.42 1124.43,3140.93 1141.6,3149.21C1146.53,3151.59 1151.52,3153.97 1156.69,3155.74C1160.44,3157.02 1162.51,3159.4 1163.76,3162.82ZM1326.82,3157.93C1336.32,3162.45 1343.19,3166.72 1352.35,3179.12C1363.3,3193.97 1374.17,3208.89 1384.87,3223.92C1388.47,3228.99 1391.49,3234.48 1394.69,3239.82C1397.12,3243.88 1395.98,3248.22 1393.19,3250.94C1383.02,3260.89 1381.11,3274.13 1377.81,3286.86C1376.41,3292.28 1373.65,3294.21 1371.61,3295.57C1365.61,3299.55 1359.62,3296.38 1342.72,3292.68C1327.62,3289.38 1327.04,3288.07 1304.47,3285.83C1286.77,3284.07 1275.06,3274 1266.06,3260.3C1254.74,3243.06 1244.37,3225.16 1231.4,3209.09C1218.26,3192.81 1204.93,3176.65 1190.85,3161.19C1187.16,3157.14 1180.51,3155.6 1175.01,3153.44C1169.79,3151.39 1169.67,3151.7 1167.29,3146.97C1168.72,3146.6 1170.09,3145.82 1171.34,3145.98C1182.96,3147.44 1194.52,3149.43 1206.16,3150.52C1217.31,3151.56 1228.53,3151.99 1239.73,3152.18C1255.45,3152.46 1256.91,3151.76 1271.07,3151.77C1299.68,3151.8 1313.99,3151.82 1326.82,3157.93ZM1141.74,3097.56C1138.05,3092 1134.84,3085.98 1132.33,3079.79C1124.26,3059.93 1115.56,3040.26 1111.52,3019.02C1111.42,3018.53 1111.33,3018.01 1111.11,3017.58C1104.23,3004.01 1103.88,2988.61 1098.99,2974.47C1097.94,2971.46 1097.64,2968.16 1097.15,2964.97C1093.42,2941.06 1089.57,2917.17 1086.09,2893.22C1084.46,2881.96 1083.59,2870.59 1082.2,2857.65C1083.01,2858.67 1084.25,2860.26 1085.73,2862.23C1107.21,2890.94 1103.71,2902.67 1121.34,2930.8C1125.2,2936.97 1131.96,2949.09 1141.67,2966.24C1142.04,2966.88 1142.22,2967.66 1142.66,2968.25C1150.82,2979.26 1158.92,2990.33 1167.22,3001.24C1172.96,3008.78 1178.73,3016.34 1184.95,3023.48C1193.95,3033.82 1203.45,3043.72 1212.58,3053.95C1218.06,3060.08 1223.36,3066.39 1228.53,3072.79C1235.73,3081.69 1243.1,3090.49 1249.74,3099.8C1257.42,3110.54 1264.55,3121.69 1271.55,3132.89C1273.46,3135.95 1274.04,3139.85 1275.68,3144.73C1271.06,3145.05 1267.66,3145.46 1264.25,3145.48C1253.79,3145.55 1243.33,3145.47 1232.87,3145.44C1228.39,3145.42 1223.91,3145.44 1219.43,3145.32C1216.7,3145.25 1213.95,3145.15 1211.26,3144.71C1199.43,3142.8 1187.64,3140.64 1175.79,3138.81C1171.82,3138.19 1168.9,3136.57 1166.58,3133.22C1158.37,3121.29 1149.76,3109.62 1141.74,3097.56ZM1010.11,2728.54C1010.1,2723.98 1009.72,2719.42 1009.51,2714.86C1010.02,2714.75 1010.52,2714.65 1011.03,2714.55C1014.35,2720.5 1017.52,2726.54 1021.02,2732.38C1030.89,2748.85 1040.8,2765.3 1050.87,2781.65C1060.16,2796.72 1066.16,2813.08 1069.1,2830.4C1071.9,2846.86 1073.46,2863.54 1075.68,2880.11C1079.02,2905.06 1082.1,2930.06 1085.93,2954.93C1090.73,2986.08 1099.56,3016.26 1109.85,3045.98C1114.57,3059.63 1119.8,3073.14 1125.56,3086.38C1128.42,3092.93 1132.8,3098.88 1136.87,3104.84C1141.1,3111.01 1145.85,3116.82 1150.24,3122.89C1151.75,3124.97 1152.85,3127.33 1154.14,3129.57C1153.66,3129.99 1153.17,3130.4 1152.69,3130.82C1149.1,3127.99 1145.41,3125.29 1141.95,3122.31C1128.72,3110.93 1115.22,3099.84 1102.51,3087.91C1093.46,3079.42 1085.25,3069.98 1077.17,3060.53C1069.88,3052.01 1063.13,3043.01 1056.42,3034.01C1046.4,3020.58 1037.45,3006.45 1031.22,2990.83C1027.44,2981.36 1023.95,2971.74 1021.06,2961.97C1018.74,2954.12 1016.94,2946.02 1015.92,2937.91C1013.97,2922.33 1012.58,2906.67 1011.27,2891.02C1010.17,2877.91 1009.38,2864.77 1008.73,2851.63C1008.41,2845.18 1008.63,2838.7 1008.77,2832.24C1009.13,2816.07 1009.76,2799.9 1009.96,2783.73C1010.2,2765.33 1010.14,2746.93 1010.11,2728.54ZM1336.08,3394.24C1326.03,3387.39 1316.92,3379.16 1307.42,3371.51C1306.91,3371.09 1306.67,3370.34 1306.3,3369.75C1306.61,3369.28 1306.92,3368.8 1307.23,3368.33C1310.24,3369.87 1313.31,3371.3 1316.25,3372.98C1327.51,3379.38 1338.61,3386.06 1349.99,3392.23C1355.89,3395.44 1362.15,3398.05 1368.42,3400.48C1376.25,3403.53 1383,3407.92 1388.82,3414C1394.51,3419.93 1400.56,3425.51 1406.47,3431.23C1408.05,3432.76 1409.71,3434.21 1411.34,3435.7C1410.77,3436.29 1410.2,3436.88 1409.63,3437.46C1407.88,3436.92 1405.94,3436.69 1404.4,3435.79C1394.94,3430.27 1385.54,3424.66 1376.18,3418.98C1362.75,3410.83 1349.05,3403.07 1336.08,3394.24ZM1339.72,3438.28C1330.14,3432.18 1322,3424.78 1315.8,3415.15C1309.63,3405.55 1302.83,3396.34 1299.48,3384.07C1301.87,3385 1303.85,3385.3 1305.23,3386.38C1315.23,3394.17 1325.14,3402.07 1334.99,3410.05C1340.97,3414.91 1347.04,3419.7 1352.59,3425.02C1358.5,3430.68 1363.79,3436.99 1369.47,3442.89C1374.46,3448.09 1379.83,3452.93 1384.63,3458.29C1387.69,3461.7 1390.02,3465.77 1392.68,3469.54C1392.12,3470.02 1391.56,3470.5 1391,3470.98C1382.62,3466.3 1374.04,3462.13 1366.33,3456.11C1357.93,3449.56 1348.73,3444.01 1339.72,3438.28ZM1267.78,3386.2C1273.55,3382.13 1278.13,3378.91 1283.08,3375.42C1286.86,3382.54 1290.09,3388.94 1293.63,3395.17C1297.01,3401.12 1300.72,3406.88 1303.71,3413.24C1291.07,3405.62 1279.3,3397.13 1267.78,3386.2ZM1254.41,3431.41C1250.13,3426.61 1246.12,3421.49 1242.64,3416.09C1238.04,3408.97 1238.49,3407.65 1244.97,3402.56C1246.68,3401.22 1248.56,3400.08 1250.31,3398.88C1259.53,3409.7 1269.06,3433.9 1268.39,3445.02C1263.51,3440.32 1258.65,3436.15 1254.41,3431.41ZM1283.18,3550.02C1286.5,3559.31 1292.22,3567.73 1296.7,3576.61C1299.17,3581.49 1301.44,3586.47 1303.57,3591.51C1304.18,3592.95 1303.97,3594.74 1304.33,3598.2C1298.25,3591.21 1291.55,3587.63 1288.47,3579.92C1285.53,3572.6 1280.76,3566.01 1276.7,3559.15C1268.63,3545.54 1264.15,3530.64 1260.24,3515.44C1258.27,3507.8 1254.85,3500.55 1252.21,3493.08C1251.59,3491.34 1251.49,3489.43 1252.26,3487.09C1253.2,3488.02 1254.44,3488.79 1255.04,3489.9C1265.51,3509.43 1275.69,3529.04 1283.18,3550.02ZM1258.64,3483.27C1256.61,3479.9 1255.49,3475.85 1253.02,3472.89C1243.35,3461.3 1240.92,3446.99 1237.34,3433.08C1237.18,3432.47 1237.63,3431.69 1237.98,3430.21C1243.4,3434.91 1267.93,3488.57 1268.25,3498.34C1265.03,3493.32 1261.71,3488.38 1258.64,3483.27ZM1421.26,3568.67C1421.65,3573 1422.57,3577.29 1423.27,3581.59C1422.8,3581.86 1422.33,3582.13 1421.87,3582.39C1418.17,3578.91 1413.87,3575.86 1410.91,3571.83C1406.98,3566.48 1404.08,3560.36 1400.78,3554.55C1399.79,3552.82 1399.1,3550.91 1397.98,3549.28C1392.35,3541.07 1387.34,3532.57 1382.99,3523.54C1379.58,3516.45 1374.52,3509.93 1369.21,3504.05C1358.37,3492.06 1346.87,3480.67 1335.64,3469.03C1325.03,3458.05 1312.75,3449.14 1300.5,3440.12C1295.36,3436.34 1290.96,3431.39 1286.83,3426.46C1280.76,3419.24 1275.21,3411.57 1269.49,3404.05C1268.77,3403.12 1268.36,3401.96 1267.8,3400.9C1268.18,3400.54 1268.55,3400.19 1268.93,3399.83C1275.23,3404.2 1281.48,3408.67 1287.87,3412.91C1293.25,3416.47 1298.7,3419.95 1304.3,3423.16C1316.1,3429.93 1326.15,3438.25 1334.45,3449.41C1343.15,3461.1 1352.66,3472.35 1365.3,3480.58C1377.95,3488.82 1386.73,3501.26 1396.51,3512.51C1407.56,3525.24 1413.96,3540.91 1422.66,3555.13C1424.18,3557.61 1424.73,3559.87 1422.43,3562.59C1421.26,3563.98 1421.08,3566.65 1421.26,3568.67ZM1415.77,3409.84C1400.37,3407.83 1386.52,3403.65 1375.05,3393.03C1370.91,3389.19 1365.72,3386.49 1361.02,3383.26C1357.85,3381.09 1354.69,3378.9 1350.19,3375.79C1361.45,3376.16 1409.98,3401.89 1415.77,3409.84ZM1694.72,4065.4C1693.26,4057.05 1692.2,4048.57 1690.04,4040.39C1685.66,4023.76 1680.1,4007.57 1672.4,3992.06C1664.43,3975.99 1657.48,3959.43 1650.1,3943.07C1649.6,3941.95 1649.34,3940.72 1648.95,3939.55C1647.71,3935.78 1646.68,3931.92 1645.18,3928.26C1642.63,3922.02 1639.45,3916.03 1637.15,3909.71C1629.6,3888.98 1627.33,3867.66 1629.88,3845.68C1632.44,3823.61 1633.31,3801.46 1631.92,3779.22C1630.56,3757.42 1627.39,3736.07 1618.58,3715.87C1616.2,3710.4 1613.42,3705.02 1611.79,3699.33C1609.48,3691.2 1607.84,3682.85 1606.31,3674.53C1602.8,3655.46 1599.66,3636.32 1596.13,3617.26C1593.55,3603.33 1593.19,3589.04 1588.22,3575.46C1584.72,3565.9 1582.73,3555.78 1579.99,3545.94C1578.58,3540.89 1577.19,3535.83 1575.44,3530.91C1572.08,3521.53 1568.54,3512.21 1564.94,3502.92C1562.41,3496.41 1559.79,3489.99 1559.81,3482.77C1559.82,3481.07 1558.44,3478.77 1557,3477.73C1548.69,3471.81 1540.58,3465.4 1531.61,3460.65C1520.75,3454.9 1510.45,3448.57 1500.74,3441.04C1492.21,3434.42 1482.68,3429.55 1471.8,3427.75C1466.65,3426.89 1461.48,3425.9 1456.48,3424.45C1450.03,3422.58 1443.95,3420.13 1438.55,3415.6C1433.08,3411.02 1426.56,3407.66 1420.38,3403.97C1414.22,3400.29 1407.61,3397.3 1401.75,3393.21C1393.85,3387.7 1385.52,3383.07 1376.97,3378.7C1371.45,3375.88 1366.15,3372.62 1360.86,3369.37C1359.62,3368.61 1358.86,3367.09 1357.88,3365.92C1365.87,3366.44 1373.2,3367.86 1380.35,3369.93C1393.04,3373.61 1405.87,3377.02 1418.15,3381.79C1430.91,3386.75 1443.33,3392.73 1455.44,3399.14C1465.55,3404.5 1475.89,3410.06 1484.53,3417.41C1499.85,3430.44 1516.79,3440.71 1534.16,3450.48C1536.08,3451.56 1538.24,3452.29 1540.38,3452.9C1549.21,3455.42 1558.11,3457.72 1566.92,3460.32C1571.31,3461.62 1574.37,3459.89 1574.81,3455.35C1575.13,3452.04 1573.7,3449.55 1571.06,3447.69C1568.41,3445.82 1565.81,3443.88 1563.07,3442.16C1559.95,3440.2 1556.76,3439.96 1554.58,3443.42C1552.67,3446.43 1550.27,3446.11 1547.41,3445.54C1537.47,3443.56 1528.54,3439.4 1520.35,3433.51C1514.08,3429 1507.62,3424.74 1501.44,3420.12C1498.69,3418.07 1496.39,3415.4 1493.89,3413.01C1495.71,3412.28 1496.69,3412.42 1497.54,3412.84C1511.51,3419.59 1525.77,3425.54 1541.1,3428.46C1545.99,3429.4 1550.89,3430.6 1555.82,3430.8C1559.35,3430.94 1561.16,3428.31 1560.68,3425.54C1560.02,3421.76 1556.75,3419.56 1553.27,3420.13C1550.7,3420.55 1547.96,3420.84 1545.44,3420.4C1539.79,3419.41 1534.22,3417.93 1528.63,3416.64C1517.05,3413.97 1506.49,3408.84 1497.1,3401.82C1485.94,3393.47 1475.42,3384.28 1464.69,3375.36C1463.28,3374.18 1462.31,3372.46 1459.98,3369.57C1466.71,3371.01 1471.66,3372.38 1476.7,3373.07C1484.02,3374.08 1490.69,3376.56 1497,3380.32C1502.15,3383.39 1507.24,3386.63 1512.66,3389.13C1526.92,3395.73 1541.57,3401.53 1555.62,3408.54C1561.96,3411.7 1567.99,3409.89 1573.75,3411.22C1575.53,3407.6 1575.94,3404.93 1573.39,3402.79C1570.48,3400.35 1567.25,3398.8 1563.16,3399.32C1560.57,3399.65 1557.6,3399.94 1555.29,3399.02C1545.1,3394.96 1534.95,3390.74 1525.05,3386.02C1514.04,3380.77 1503.32,3374.92 1492.5,3369.28C1491.55,3368.79 1490.8,3367.89 1489.96,3367.18C1497.88,3368.15 1505.34,3369.92 1512.68,3372.12C1534.74,3378.74 1555.44,3388.67 1576.18,3398.51C1580.21,3400.42 1584.57,3401.76 1588.9,3402.88C1592.47,3403.81 1595.46,3401.47 1595.91,3398.05C1596.34,3394.9 1594.55,3393.27 1590.57,3392.46C1586.94,3391.72 1583.25,3390.91 1579.84,3389.52C1560.92,3381.83 1542.39,3373.19 1522.96,3366.73C1519.03,3365.42 1514.65,3364.14 1511.09,3359.89C1513.03,3359.48 1514.27,3358.79 1515.15,3359.1C1518.66,3360.35 1522.2,3361.66 1525.48,3363.41C1542.09,3372.25 1559.42,3379.07 1577.85,3383.11C1581.02,3383.8 1583.92,3385.74 1587.87,3387.51C1589.45,3387.65 1592.33,3387.6 1595.07,3388.2C1599.41,3389.15 1601.38,3388.66 1602.52,3385.63C1603.85,3382.1 1602.18,3378.78 1598.14,3377.57C1595.28,3376.71 1592.29,3376.28 1589.34,3375.72C1574.63,3372.91 1560.16,3369.3 1546.4,3363.19C1536.39,3358.74 1526.29,3354.49 1516.24,3350.14C1512.8,3348.66 1510.77,3345.96 1509.57,3342.48C1507.47,3336.34 1505.27,3330.24 1503.17,3324.1C1500.12,3315.13 1497.22,3306.11 1494.07,3297.17C1492.44,3292.54 1490.35,3288.07 1488.57,3283.48C1485.05,3274.45 1482.57,3264.84 1477.9,3256.46C1470.63,3243.43 1462.16,3231.02 1453.69,3218.7C1442.52,3202.46 1430.9,3186.54 1419.41,3170.53C1414.9,3164.24 1410.3,3158 1405.55,3151.9C1403.73,3149.57 1400.81,3147.99 1399.34,3145.51C1395.3,3138.67 1391.54,3131.65 1388.1,3124.49C1385.4,3118.89 1383.52,3112.9 1380.97,3107.22C1378.02,3100.63 1374.83,3094.14 1371.57,3087.68C1369.34,3083.25 1366.23,3079.18 1364.57,3074.56C1361.42,3065.79 1355.91,3058.96 1349.07,3053C1340.08,3045.18 1331.49,3036.97 1321.65,3030.06C1309.86,3021.78 1299,3012.17 1287.66,3003.23C1284.79,3000.96 1281.15,2999.52 1278.68,2996.92C1272.64,2990.55 1265.61,2985.6 1258.45,2980.68C1251.47,2975.88 1244.27,2971.17 1238.19,2965.35C1219.31,2947.28 1201.03,2928.58 1182.3,2910.35C1172.66,2900.97 1162.97,2891.57 1152.55,2883.09C1140.4,2873.19 1130.43,2861.3 1121.35,2848.93C1109.11,2832.28 1098.6,2814.35 1087.45,2796.9C1084.64,2792.49 1081.93,2787.97 1079.65,2783.28C1072.22,2768.03 1064.98,2752.68 1057.72,2737.34C1052.72,2726.78 1047.77,2716.19 1042.86,2705.58C1042.03,2703.78 1041.47,2701.84 1040.89,2699.93C1039.46,2695.2 1038.14,2690.42 1036.67,2685.7C1035.26,2681.17 1033.68,2676.7 1032.23,2672.19C1029.64,2664.13 1026.89,2656.12 1024.58,2647.98C1022.76,2641.54 1021.09,2635 1020.1,2628.4C1018.4,2617.09 1017.32,2605.7 1015.9,2594.36C1014.7,2584.75 1013.38,2575.15 1012.14,2565.54C1012.04,2564.81 1012.22,2564.05 1012.21,2563.3C1012.13,2554.1 1012.1,2544.89 1011.92,2535.68C1011.66,2522.49 1011.17,2509.29 1011.01,2496.1C1010.91,2487.13 1011.2,2478.15 1011.32,2469.18C1011.55,2453.24 1011.88,2445.28 1011.84,2443.36C1011.59,2431.29 1009.58,2403.64 1004.16,2403.13C1000.91,2402.82 999.819,2412.53 990.119,2429.04C979.701,2446.79 976.633,2442.96 972.773,2453.35C967.039,2468.78 969.528,2488.72 968.942,2501.25C968.522,2510.22 968.043,2508.73 967.644,2520.62C966.99,2540.03 968.193,2559.43 966.27,2578.88C963.937,2602.45 963.548,2626.3 957.714,2649.37C953.011,2667.97 947.135,2686.28 941.351,2704.59C938.652,2713.13 935.019,2721.38 931.664,2729.71C925.947,2743.89 918.909,2757.49 909.396,2769.41C896.955,2785.01 883.744,2800.01 870.58,2815.01C857.473,2829.95 842.992,2843.22 824.208,2850.96C819.497,2852.9 816.403,2855.55 813.849,2856.96C779.225,2876.12 739.78,2893.73 725.664,2900.54C691.761,2916.89 669.36,2935.82 647.062,2954.65C605.133,2990.08 579.914,3023.82 570.641,3040.39C562.757,3054.47 554.565,3071.62 554.565,3071.62C551.768,3077.14 548.438,3082.58 546.802,3088.47C544.162,3097.97 540.658,3107.06 535.349,3115.21C520.352,3138.22 504.338,3160.51 486.339,3181.33C477.7,3191.33 469.181,3201.49 461.375,3212.13C455.803,3219.73 451.316,3228.16 446.691,3236.41C439.989,3248.37 433.377,3260.39 427.135,3272.6C420.496,3285.58 416.257,3299.38 414.176,3313.86C413.576,3318.04 412.506,3322.16 411.504,3326.27C407.069,3344.47 395.929,3359.59 388.333,3376.34C388.028,3377.01 387.473,3377.56 387.08,3378.2C382.361,3385.84 377.335,3393.31 373.002,3401.16C363.103,3419.1 354.559,3437.65 348.63,3457.36C343.599,3474.08 337.9,3490.61 333.043,3507.38C329.716,3518.87 326.978,3530.57 324.605,3542.3C321.593,3557.19 318.476,3572.13 316.772,3587.2C314.982,3603.03 314.862,3619.04 313.919,3634.97C312.935,3651.62 311.945,3668.26 310.765,3684.9C309.476,3703.07 308.182,3721.25 306.479,3739.39C305.28,3752.15 301.423,3764.3 296.271,3776.02C293.273,3782.84 289.443,3789.39 287.278,3796.45C285.027,3803.8 284.436,3811.64 282.916,3819.23C281.908,3824.26 284.784,3827.51 288.18,3829.94C291.648,3832.43 295.846,3832.28 299.375,3829.49C305.042,3825.01 311.037,3820.81 316.044,3815.66C325.585,3805.86 334.344,3795.3 343.761,3785.37C355.791,3772.68 366.191,3758.72 376.834,3744.91C385.045,3734.26 393.545,3723.79 402.536,3713.8C406.095,3709.84 410.941,3706.38 415.887,3704.48C423.84,3701.42 431.718,3698.45 438.767,3693.59C447.166,3687.8 456.271,3682.79 463.799,3676.03C474.137,3666.74 483.267,3656.1 492.948,3646.08C495.888,3643.03 499.012,3640.17 501.92,3637.09C506.543,3632.21 511.005,3627.17 515.628,3622.28C520.239,3617.41 524.996,3612.68 529.627,3607.83C532.354,3604.97 535.235,3602.2 537.556,3599.03C540.495,3595.02 542.844,3590.58 545.615,3586.43C548.746,3581.75 552.849,3578.21 558.476,3576.88C572.489,3573.59 582.819,3564.6 592.488,3554.73C599.961,3547.11 605.592,3537.94 612.378,3529.71C622.954,3516.87 631.595,3502.46 641.393,3488.97C647.098,3481.11 652.724,3472.96 659.688,3466.3C672.652,3453.91 686.53,3442.47 700.141,3430.77C701.661,3429.46 703.914,3429.01 707.164,3427.56C705.972,3430.59 705.503,3432.23 704.719,3433.7C697.104,3448.02 689.446,3462.31 681.781,3476.6C678.365,3482.97 675.528,3489.76 671.312,3495.55C665.742,3503.2 659.478,3510.45 652.779,3517.14C643.971,3525.93 634.231,3533.79 625.287,3542.45C612.509,3554.83 598.483,3565.61 584.15,3576.06C580.733,3578.55 577.528,3581.4 574.539,3584.4C568.424,3590.53 564.57,3598.05 561.858,3606.21C560.787,3609.43 562.06,3611.6 564.927,3612.89C568.143,3614.34 570.261,3612.55 571.639,3609.93C572.429,3608.42 572.443,3606.53 573.094,3604.93C574.473,3601.54 575.563,3597.89 577.614,3594.94C585.913,3582.98 599.046,3576.46 609.888,3567.38C614.898,3563.18 619.048,3558.3 623.843,3554.03C634.982,3544.13 646.815,3535 657.276,3524.32C657.581,3524.01 658.527,3524.33 659.609,3524.37C659.08,3525.64 658.774,3526.54 658.341,3527.38C645.917,3551.41 630.743,3573.66 614.406,3595.16C609.097,3602.15 602.574,3606.96 593.737,3608.95C583.567,3611.23 576.601,3617.67 572.824,3627.52C570.557,3633.44 571.99,3636.12 578.976,3637.91C579.343,3636.75 579.876,3635.6 580.06,3634.4C581.28,3626.39 586.142,3621.56 593.419,3618.71C597.834,3616.98 602.167,3615.04 606.601,3613.37C610.711,3611.82 613.897,3609.39 616.381,3605.65C622.447,3596.54 628.937,3587.7 634.999,3578.58C641.203,3569.25 647.062,3559.68 653.175,3550.29C654.165,3548.76 655.689,3547.59 656.966,3546.25C658.218,3563.77 655.182,3577.43 652.65,3585.71C650.833,3591.67 647.264,3602.81 639.035,3614.78C635.089,3620.53 630.448,3625.84 626.939,3631.83C623.689,3637.37 621.529,3643.56 618.817,3649.62C620.061,3652.53 622.208,3654.69 625.515,3654.45C628.844,3654.21 629.236,3650.95 630.377,3648.48C632.985,3642.84 635.304,3636.98 638.608,3631.75C647.981,3616.94 657.393,3602.18 660.306,3584.47C662.992,3568.15 666.546,3568.19 670.569,3560.29C676.599,3548.44 682.724,3539.54 686.662,3533.86C688.254,3531.57 693.068,3525.12 703.046,3512.51C706.261,3508.44 709.796,3504.63 713.261,3500.76C714.652,3499.21 715.593,3496.7 719.028,3497.86C717.324,3503.45 714.021,3508.17 710.431,3512.37C702.705,3521.4 696.872,3531.53 691.741,3542.1C687.173,3551.51 682.815,3561.04 678.69,3570.66C670.917,3588.78 662.879,3606.86 658.773,3626.27C657.343,3633.03 654.816,3639.05 651.053,3644.76C646.392,3651.84 641.986,3659.1 637.672,3666.39C636.926,3667.65 636.458,3669.94 637.102,3671.01C639.657,3675.23 644.885,3675 647.229,3670.66C652.667,3660.59 658.001,3650.47 663.274,3640.32C664.064,3638.8 664.318,3637 664.783,3635.31C667.772,3624.5 670.423,3613.58 673.832,3602.9C676.788,3593.64 680.22,3584.49 684.14,3575.59C688.048,3566.72 692.839,3558.24 697.214,3549.58C699.349,3545.35 701.298,3541.02 703.553,3536.86C705.675,3532.94 709.593,3529.34 710.018,3525.31C710.631,3519.5 715.542,3518.2 718.083,3514.59C722.806,3507.88 727.693,3501.28 732.839,3494.89C737.826,3488.7 742.954,3482.58 748.507,3476.91C756.321,3468.93 764.831,3461.63 772.553,3453.57C776.59,3449.35 780.869,3445.8 786.213,3443.26C782.015,3450.68 777.911,3458.17 772.402,3464.42C763.33,3474.72 754.322,3484.99 747.271,3496.8C742.027,3505.58 737.192,3514.61 731.844,3523.33C721.936,3539.48 716.447,3557.36 711.042,3575.28C709.317,3580.99 707.396,3586.74 706.598,3592.62C705.756,3598.82 702.677,3602.92 698.215,3607C692.748,3612 687.188,3617.39 683.448,3623.67C677.342,3633.92 672.662,3645.03 667.422,3655.8C666.882,3656.91 666.465,3658.14 666.276,3659.35C665.593,3663.76 669.727,3666.97 673.915,3665.35C679.447,3663.22 684.131,3654.08 682.986,3648.15C682.534,3645.81 681.94,3643.01 682.793,3641C684.831,3636.21 687.31,3631.5 690.333,3627.28C692.967,3623.6 696.59,3620.63 699.776,3617.34C700.263,3617.65 700.75,3617.96 701.236,3618.26C698.971,3629.66 701.076,3641.93 693.626,3652.31C692.921,3653.29 692.279,3654.64 692.337,3655.78C692.428,3657.58 692.606,3660.31 693.706,3660.92C695.323,3661.81 697.959,3661.7 699.825,3661.05C701.225,3660.56 702.599,3658.72 703.106,3657.2C704.507,3652.98 706.496,3648.57 706.363,3644.3C706.032,3633.62 708.443,3623.48 710.624,3613.23C711.958,3606.97 716.816,3604.44 722.479,3600.7C722.188,3603.66 722.237,3605.36 721.833,3606.93C718.676,3619.26 715.668,3631.64 712.14,3643.86C709.309,3653.68 706.102,3663.36 700.416,3672.1C697.308,3676.87 695.053,3682.24 692.742,3687.49C691.259,3690.85 692.812,3693.28 696.331,3694.11C699.749,3694.91 701.158,3692.85 702.641,3690.23C709.965,3677.32 713.822,3663.06 718.383,3649.13C721.868,3638.49 723.571,3627.28 726.616,3616.48C730.051,3604.28 732.126,3591.46 740.316,3581.13C743.037,3577.7 746.425,3574.81 749.359,3571.54C754.171,3566.17 758.959,3560.78 763.578,3555.24C769.792,3547.8 775.827,3540.21 781.957,3532.69C783.407,3530.92 784.391,3528.52 788.465,3527.81C786.465,3530.82 785.105,3532.79 783.834,3534.81C779.062,3542.4 774.061,3549.87 769.635,3557.66C764.83,3566.12 760.182,3574.72 756.186,3583.58C752.424,3591.91 749.126,3600.53 746.496,3609.29C743.919,3617.88 743.139,3627.02 740.325,3635.5C735.617,3649.7 729.927,3663.57 724.634,3677.58C722.176,3684.08 719.682,3690.57 717.075,3697.41C710.275,3695.92 707.806,3699.83 706.273,3705.06C705.792,3706.7 705.086,3708.31 704.216,3709.78C702.923,3711.97 702.389,3714.13 704.719,3715.72C707.036,3717.31 709.549,3720.61 712.557,3717.86C716.551,3714.21 721.026,3710.38 723.267,3705.66C727.19,3697.39 729.549,3688.39 732.613,3679.71C733.44,3677.37 734.394,3675.07 735.375,3672.78C736.942,3669.13 738.724,3665.57 740.156,3661.87C742.497,3655.82 744.41,3649.6 746.91,3643.62C749.634,3637.11 751.381,3630.47 752.228,3623.44C753.029,3616.78 754.138,3610 756.365,3603.72C759.346,3595.32 763.479,3587.32 767.238,3579.2C768.386,3576.72 769.913,3574.41 771.304,3572.04C775.185,3565.45 779.092,3558.87 782.975,3552.28C784.591,3549.53 785.91,3546.57 787.821,3544.05C792.184,3538.3 796.802,3532.75 801.37,3527.16C803.454,3524.61 805.667,3522.16 807.822,3519.67C808.253,3519.99 808.686,3520.3 809.117,3520.62C806.208,3526.61 803.317,3532.6 800.386,3538.58C791.395,3556.92 786.92,3576.73 782.549,3596.42C777.428,3619.48 770.416,3641.76 759.014,3662.4C754.003,3671.46 748.102,3680.64 740.548,3687.51C734.434,3693.06 732.747,3700.34 727.008,3706.28C730.062,3708.07 732.099,3709.27 734.669,3710.77C736.241,3708.6 737.546,3706.87 738.778,3705.08C742.314,3699.96 745.481,3694.54 749.415,3689.75C756.021,3681.7 762.822,3674.02 767.411,3664.36C775.906,3646.49 783.619,3628.45 787.56,3608.94C791.859,3587.66 797.392,3566.69 805.218,3546.41C807.149,3541.41 810.416,3536.93 812.866,3532.11C816.484,3524.99 819.751,3517.69 823.487,3510.63C826.917,3504.15 829.903,3497.31 836.76,3490.77C836.182,3494.37 836.093,3496.26 835.56,3498.01C831.718,3510.68 828.003,3523.39 823.834,3535.95C817.488,3555.06 813.712,3574.52 814.128,3594.74C814.264,3601.36 812.598,3607.43 808.741,3613.09C804.534,3619.26 800.406,3625.66 797.438,3632.48C787.39,3655.57 777.182,3678.63 769.598,3702.7C768.949,3704.76 768.658,3707.15 769.002,3709.25C769.558,3712.66 772.726,3713.09 775.422,3713.14C776.422,3713.16 778.377,3711.37 778.334,3710.48C778.011,3703.75 781.916,3698.75 784.75,3693.26C786.551,3689.78 788.598,3686.38 786.162,3682.06C785.456,3680.8 786.634,3678.24 787.384,3676.45C792.421,3664.5 797.34,3652.48 802.792,3640.71C805.552,3634.75 809.343,3629.27 813.549,3622.06C814.247,3626.08 814.82,3628.42 815.037,3630.8C815.717,3638.26 815.973,3645.77 816.957,3653.19C817.691,3658.73 816.387,3663.29 813.58,3668.07C807.517,3678.4 802.063,3689.07 796.333,3699.59C795.386,3701.33 794.457,3703.11 793.25,3704.67C788.409,3710.9 787.868,3718.88 784.568,3725.73C784.264,3726.36 784.254,3727.22 784.353,3727.95C785.227,3734.34 786.046,3740.74 787.091,3747.1C789.186,3759.87 791.536,3772.59 793.555,3785.37C796.358,3803.1 799.333,3820.71 806.856,3837.28C819.543,3865.22 831.663,3893.47 847.647,3919.73C854.227,3930.53 862.088,3940.68 870.268,3950.37C879.736,3961.58 889.771,3972.4 900.348,3982.57C910.754,3992.58 921.557,4002.39 933.291,4010.74C943.035,4017.67 949.892,4026.48 955.718,4036.33C964.984,4052.01 973.327,4068.24 982.837,4083.76C988.539,4093.06 995.36,4101.63 1004.5,4108.26C1015.57,4116.28 1026.62,4124.5 1036.58,4133.81C1049.3,4145.7 1062.5,4157.32 1072.16,4172.13C1076.11,4178.19 1079.97,4184.31 1083.94,4190.37C1094.92,4207.13 1111.3,4218.58 1125.44,4232.22C1131.18,4237.76 1138.13,4242.08 1143.58,4247.85C1149.86,4254.49 1156.99,4259.71 1164.62,4264.51C1167.63,4266.41 1170.26,4267.57 1173.54,4265.44C1176.98,4263.2 1177.75,4259.89 1177.05,4256.26C1175.7,4249.16 1174.56,4241.97 1172.45,4235.09C1168.96,4223.71 1167.33,4211.64 1160.66,4201.35C1159.87,4200.13 1159.38,4198.6 1159.15,4197.14C1156.92,4182.58 1150.73,4169.07 1148.4,4154.42C1146.91,4145.05 1143.1,4136.11 1141.85,4126.35C1140.11,4112.71 1139.25,4099.06 1139.15,4085.4C1139.06,4072.91 1138.45,4060.54 1136.18,4048.27C1134.92,4041.44 1133.06,4034.73 1131.8,4027.9C1129.65,4016.15 1127.9,4004.34 1125.71,3992.6C1124.53,3986.25 1123.4,3979.78 1121.17,3973.76C1117.36,3963.51 1112.71,3953.56 1108.39,3943.5C1104.35,3934.1 1099.74,3924.9 1096.36,3915.28C1092.93,3905.51 1087.11,3896.7 1085.22,3886.33C1083.32,3875.82 1081.05,3865.39 1078.98,3854.91C1077.53,3847.61 1075.99,3840.31 1074.75,3832.96C1073.23,3823.89 1071.54,3814.81 1070.77,3805.66C1070.21,3798.99 1071,3792.21 1071.23,3785.48C1071.64,3773.58 1070.07,3761.79 1071.26,3749.73C1073.08,3731.44 1072.48,3712.91 1072.82,3694.47C1072.98,3686.25 1073.02,3678.03 1072.98,3669.81C1072.92,3656.59 1072.75,3643.38 1072.62,3630.17C1072.55,3622.95 1072.72,3615.71 1072.29,3608.51C1071.88,3601.6 1070.88,3594.73 1070.03,3587.85C1069.16,3580.72 1068.23,3573.59 1067.21,3566.48C1066.63,3562.43 1065.64,3558.44 1065.17,3554.39C1064.74,3550.73 1065.09,3546.97 1064.54,3543.34C1063.76,3538.17 1062.21,3533.11 1061.46,3527.93C1060.61,3522.15 1060.29,3516.28 1059.71,3510.16C1065.69,3509.64 1070.79,3509.88 1075.5,3508.66C1088.72,3505.23 1102.72,3504.9 1115.22,3498.66C1115.88,3498.33 1116.66,3498.13 1117.39,3498.1C1123.35,3497.82 1124.99,3494.09 1126.06,3488.8C1128.92,3474.69 1128.41,3460.46 1128.35,3446.25C1128.31,3435.26 1128.81,3424.39 1130.5,3413.49C1131.67,3405.92 1132.26,3398 1131.4,3390.42C1129.69,3375.41 1124.13,3361.51 1116.35,3348.53C1114.17,3344.89 1111.84,3341.31 1110.02,3337.48C1102.51,3321.67 1091.62,3308.29 1078.87,3296.67C1065.14,3284.16 1055.73,3269.54 1051.3,3251.51C1048.39,3239.63 1044.98,3227.86 1041.57,3216.11C1038.92,3206.98 1038.26,3206.82 1036.09,3199.86C1032.98,3189.91 1032.27,3184.63 1027.41,3152.02C1023.25,3124.05 1022.4,3118.74 1021.09,3107.27C1020.1,3098.65 1019.4,3091.35 1018.92,3085.95C1020.35,3086.37 1020.89,3087.11 1021.31,3087.91C1028.72,3102.03 1036.12,3116.17 1043.51,3130.3C1053.28,3148.95 1065.46,3165.93 1078.29,3182.58C1088.64,3195.99 1098.07,3210.15 1107.34,3224.35C1110.11,3228.58 1111.7,3233.94 1112.55,3239C1114.45,3250.29 1115.38,3261.75 1116.98,3273.1C1120,3294.67 1123.78,3316.03 1135.03,3335.25C1137.55,3339.54 1139.57,3344.14 1141.75,3348.63C1149.61,3364.78 1157.4,3380.95 1168.23,3395.46C1172.99,3401.84 1176.78,3408.94 1181.3,3415.51C1184.94,3420.81 1188.31,3426.31 1194.79,3429.13C1197.92,3430.5 1201.34,3432.72 1202.15,3436.67C1201.54,3437.34 1201.28,3437.88 1200.87,3438.05C1187.01,3443.79 1182.34,3451.63 1175.6,3456.51C1170.15,3460.45 1165.27,3469.28 1155.52,3486.92C1150.3,3496.35 1146.79,3500.78 1145.18,3507.54C1141.66,3522.31 1138.87,3537.43 1137.7,3552.56C1136.49,3568.18 1137.09,3584 1137.75,3599.71C1138.63,3620.41 1135.67,3640.63 1130.55,3660.47C1127.44,3672.48 1122.46,3684.01 1118.04,3695.65C1117.35,3697.45 1115.44,3699.45 1113.66,3700.05C1108.37,3701.85 1106.71,3703.15 1106.81,3708.48C1106.89,3712.94 1107.69,3717.38 1108.17,3721.83C1108.63,3726.14 1109.55,3726.83 1113.96,3725.52C1116.56,3724.74 1119.14,3723.76 1121.5,3722.45C1122.63,3721.82 1123.74,3720.3 1123.95,3719.03C1125.31,3710.96 1126.27,3702.82 1127.68,3694.77C1128.37,3690.88 1129.56,3687.04 1130.9,3683.32C1134.27,3673.95 1138.16,3664.75 1141.28,3655.3C1145.38,3642.9 1145.55,3629.82 1146.76,3616.96C1147.23,3612.03 1146.94,3607.03 1147.09,3602.07C1147.2,3598.37 1148.19,3594.55 1147.54,3591.02C1145.03,3577.29 1146.82,3563.65 1147.66,3549.98C1148.03,3544.07 1148.01,3538.09 1148.94,3532.26C1150.1,3524.93 1152,3517.72 1153.69,3510.49C1154.02,3509.06 1154.65,3507.64 1155.42,3506.39C1163.18,3493.9 1170.94,3481.39 1178.86,3469C1180.5,3466.43 1182.82,3464.31 1184.82,3461.98C1185.34,3462.33 1185.85,3462.68 1186.37,3463.03C1185,3465.49 1183.78,3468.04 1182.23,3470.38C1179.91,3473.88 1177.23,3477.14 1174.93,3480.66C1169.49,3488.99 1167.93,3498.74 1165.37,3508.08C1164.06,3512.83 1163.85,3517.88 1163.25,3522.82C1162.55,3528.49 1161.91,3534.18 1161.35,3539.87C1160.42,3549.24 1159.51,3558.62 1158.73,3568C1158.38,3572.2 1159.36,3576.82 1157.91,3580.55C1156.35,3584.55 1156.16,3588.28 1156.62,3592.2C1157.42,3599.14 1157.74,3606.01 1157.1,3613.01C1156.2,3622.94 1156.15,3632.94 1155.44,3642.89C1155.09,3647.85 1154.18,3652.79 1153.36,3657.71C1151.72,3667.49 1151.61,3677.45 1148.52,3687.1C1145.8,3695.62 1144.68,3704.63 1142.78,3713.42C1142.37,3715.34 1142.41,3717.03 1142.78,3718.55C1143.9,3723.04 1147.27,3728.05 1150.27,3727.64C1153.15,3727.25 1154.59,3722.01 1155.41,3719C1156.68,3714.38 1156.5,3710.51 1156.27,3705.4C1156.03,3700.15 1155.11,3697.26 1156.29,3692.3C1158.3,3683.87 1160.82,3675.58 1160.59,3666.59C1160.41,3659.88 1162.51,3653.11 1163.63,3646.16C1165,3646.71 1165.6,3646.77 1165.84,3647.09C1166.44,3647.87 1167.07,3648.72 1167.33,3649.64C1170.41,3660.38 1175.42,3670.7 1174.58,3682.32C1174.16,3688.23 1173.84,3694.15 1173.61,3700.07C1173.42,3705.18 1172.63,3709.96 1168.73,3713.78C1165.34,3717.1 1166.63,3721.31 1167.35,3725.1C1167.88,3727.87 1170.78,3728.73 1173.35,3727.25C1176.85,3725.24 1178.57,3722.01 1178.95,3718.04C1180.1,3706.12 1180.98,3694.17 1182.47,3682.3C1183.54,3673.82 1180.76,3666.07 1178.83,3658.18C1176.9,3650.28 1173.65,3642.67 1172.06,3634.71C1170.37,3626.29 1169.71,3617.63 1169.05,3609.03C1168.25,3598.6 1168.64,3588.04 1167.19,3577.72C1165.76,3567.57 1167.71,3557.84 1168.51,3547.95C1168.58,3547.18 1169.21,3546.46 1169.57,3545.71C1170.43,3558.32 1173.76,3569.99 1177.49,3581.56C1179.18,3586.79 1181.62,3591.79 1183,3597.09C1189.15,3620.72 1195.54,3644.32 1200.87,3668.15C1204.72,3685.39 1211.29,3701.42 1219.06,3717.1C1221.18,3721.38 1225.38,3721.73 1227.58,3717.61C1230.38,3712.33 1232.77,3706.83 1235.16,3701.35C1235.73,3700.06 1235.63,3698.46 1235.72,3696.99C1236.07,3691.36 1231.87,3689.51 1227.94,3688.07C1221.57,3663.82 1220.82,3629.36 1226.77,3621.77C1227.79,3624.31 1228.71,3626.58 1229.61,3628.86C1234.89,3642.28 1238,3656.55 1245.27,3669.21C1247.5,3673.1 1249.9,3676.92 1251.75,3680.98C1254.31,3686.62 1256.42,3692.46 1258.72,3698.21C1254.76,3706.01 1263.93,3709.29 1264.69,3715.48C1264.81,3716.46 1265.17,3717.43 1265.58,3718.33C1265.98,3719.23 1266.48,3720.14 1267.12,3720.88C1269.37,3723.46 1272.52,3723.23 1273.66,3720.08C1275.18,3715.87 1276.07,3711.68 1273.26,3707.21C1270.23,3702.4 1268.17,3696.99 1265.6,3691.88C1261.93,3684.55 1259.03,3676.64 1254.23,3670.12C1248.73,3662.65 1245.77,3654.41 1242.97,3645.9C1241.05,3640.05 1239.14,3634.19 1237.23,3628.34C1237.69,3628.05 1238.15,3627.76 1238.61,3627.47C1241.84,3630.72 1245.36,3633.74 1248.23,3637.28C1253.88,3644.27 1259.09,3651.6 1264.62,3658.69C1266.59,3661.2 1269.42,3663.12 1271.05,3665.8C1277.15,3675.77 1282.86,3685.97 1288.85,3696.01C1289.92,3697.81 1291.61,3699.25 1292.34,3700.09C1296.76,3698.98 1300.22,3698.56 1303.26,3697.2C1305.83,3696.05 1308.91,3694.21 1309.85,3691.89C1310.5,3690.33 1308.39,3686.72 1306.55,3685.21C1297.35,3677.65 1292.11,3667.37 1287.26,3657.01C1285.08,3652.36 1281.93,3647.53 1282.59,3640.47C1284.86,3642.77 1286.54,3644.12 1287.79,3645.79C1294.64,3655 1301.24,3664.41 1308.25,3673.49C1310.78,3676.78 1313.95,3679.76 1317.34,3682.17C1320.57,3684.46 1324.25,3682.93 1326.03,3679.38C1328.2,3675.06 1327.24,3671.55 1323.09,3668.64C1317.53,3664.74 1316.94,3663.01 1318.69,3656.77C1320.5,3650.29 1322.38,3643.83 1321.28,3636.91C1321.04,3635.36 1322.04,3633.61 1322.71,3631.02C1328.92,3637.29 1336.92,3647.19 1341.07,3661.03C1344,3670.78 1341.25,3671.94 1344.89,3689.93C1347.56,3703.11 1351.17,3716.1 1354.47,3729.15C1356.19,3735.9 1357.69,3742.75 1360.02,3749.29C1367.7,3770.86 1380.31,3789.83 1392.17,3809.18C1402.53,3826.07 1415.63,3840.87 1428.2,3856.07C1431.84,3860.47 1436.07,3864.38 1439.95,3868.6C1445.68,3874.84 1451.38,3881.12 1457.01,3887.45C1466.6,3898.2 1470.11,3902.42 1472.81,3905.43C1482.99,3916.77 1502.76,3929.19 1541.89,3953.57C1560.26,3965 1560.21,3964.97 1560.28,3965.02C1576.14,3975.91 1589.04,3981.28 1620.67,4020.73C1629.64,4031.93 1640.92,4041.33 1651.57,4051.1C1660.39,4059.19 1669.83,4066.59 1678.95,4074.34C1682.78,4077.59 1686.67,4077.05 1690.78,4074.96C1694.88,4072.87 1695.41,4069.35 1694.72,4065.4Z" style="fill:white;fill-rule:nonzero;"/>
        </g>
    </g>
</svg>
